// Created by Crowbar 0.74
version 1
nodes
  0 "polymsh1" -1
end
skeleton
  time 0
    0 0.000000 0.000000 0.000000 1.570796 0.000000 0.000000
end
triangles
doll01
  0 -0.916839 -3.030139 -7.741493 0.735697 0.140541 -0.662569 0.736920 0.332260 1 0 1.000000
  0 -1.625060 -4.519372 -6.659582 -0.858780 -0.499549 0.113785 0.755201 0.339396 1 0 1.000000
  0 -1.585286 -3.010944 -7.757769 -0.697705 0.048084 -0.714769 0.736674 0.338996 1 0 1.000000
doll01
  0 -0.916839 -3.030139 -7.741493 0.735697 0.140541 -0.662569 0.736920 0.332260 1 0 1.000000
  0 -0.893458 -4.521145 -6.583225 0.801825 -0.594819 0.057151 0.755557 0.332025 1 0 1.000000
  0 -1.625060 -4.519372 -6.659582 -0.858780 -0.499549 0.113785 0.755201 0.339396 1 0 1.000000
doll01
  0 -2.869695 -0.008708 1.454042 -0.769016 0.574902 0.279466 0.697716 0.270383 1 0 1.000000
  0 -3.559198 -3.758935 -1.541831 -0.770090 -0.247269 -0.588065 0.632299 0.010536 1 0 1.000000
  0 -3.299326 -4.020405 -1.302923 0.654711 -0.742311 0.142574 0.699810 0.010702 1 0 1.000000
doll01
  0 -3.559198 -3.758935 -1.541831 -0.770090 -0.247269 -0.588065 0.632299 0.010536 1 0 1.000000
  0 -3.150679 -3.015178 -1.400612 0.345259 0.358528 -0.867326 0.619896 0.053219 1 0 1.000000
  0 -3.287241 -3.794979 -1.632556 0.366029 -0.148422 -0.918691 0.605171 0.010819 1 0 1.000000
doll01
  0 -2.981915 -2.539079 -0.949300 0.429181 0.404811 -0.807423 0.620685 0.089641 1 0 1.000000
  0 -3.150679 -3.015178 -1.400612 0.345259 0.358528 -0.867326 0.619896 0.053219 1 0 1.000000
  0 -3.559198 -3.758935 -1.541831 -0.770090 -0.247269 -0.588065 0.632299 0.010536 1 0 1.000000
doll01
  0 -2.800026 -0.911383 -0.363460 0.130690 0.474692 -0.870395 0.639303 0.179433 1 0 1.000000
  0 -2.981915 -2.539079 -0.949300 0.429181 0.404811 -0.807423 0.620685 0.089641 1 0 1.000000
  0 -3.559198 -3.758935 -1.541831 -0.770090 -0.247269 -0.588065 0.632299 0.010536 1 0 1.000000
doll01
  0 -2.800026 -0.911383 -0.363460 0.130690 0.474692 -0.870395 0.639303 0.179433 1 0 1.000000
  0 -3.559198 -3.758935 -1.541831 -0.770090 -0.247269 -0.588065 0.632299 0.010536 1 0 1.000000
  0 -2.869695 -0.008708 1.454042 -0.769016 0.574902 0.279466 0.697716 0.270383 1 0 1.000000
doll01
  0 -2.042275 0.099440 0.592773 0.064462 0.739481 -0.670084 0.625090 0.263308 1 0 1.000000
  0 -2.800026 -0.911383 -0.363460 0.130690 0.474692 -0.870395 0.639303 0.179433 1 0 1.000000
  0 -2.869695 -0.008708 1.454042 -0.769016 0.574902 0.279466 0.697716 0.270383 1 0 1.000000
doll01
  0 -2.869695 -0.008708 1.454042 -0.769016 0.574902 0.279466 0.697716 0.270383 1 0 1.000000
  0 -0.850729 0.606254 1.458601 0.651577 0.670204 -0.355351 0.723649 0.330164 1 0 1.000000
  0 -2.042275 0.099440 0.592773 0.064462 0.739481 -0.670084 0.625090 0.263308 1 0 1.000000
doll01
  0 -2.280560 -0.926985 -0.026752 0.764322 0.032809 -0.644000 0.888969 0.197274 1 0 1.000000
  0 -0.850729 0.606254 1.458601 0.651577 0.670204 -0.355351 0.723649 0.330164 1 0 1.000000
  0 -2.869695 -0.008708 1.454042 -0.769016 0.574902 0.279466 0.697716 0.270383 1 0 1.000000
doll01
  0 -2.280560 -0.926985 -0.026752 0.764322 0.032809 -0.644000 0.888969 0.197274 1 0 1.000000
  0 -2.869695 -0.008708 1.454042 -0.769016 0.574902 0.279466 0.697716 0.270383 1 0 1.000000
  0 -3.299326 -4.020405 -1.302923 0.654711 -0.742311 0.142574 0.699810 0.010702 1 0 1.000000
doll01
  0 -3.299326 -4.020405 -1.302923 0.654711 -0.742311 0.142574 0.699810 0.010702 1 0 1.000000
  0 -2.718863 -2.408693 -0.728912 0.794883 0.096817 -0.598989 0.876711 0.106052 1 0 1.000000
  0 -2.280560 -0.926985 -0.026752 0.764322 0.032809 -0.644000 0.888969 0.197274 1 0 1.000000
doll01
  0 -3.299326 -4.020405 -1.302923 0.654711 -0.742311 0.142574 0.699810 0.010702 1 0 1.000000
  0 -2.981915 -2.539079 -0.949300 0.429181 0.404811 -0.807423 0.892938 0.089641 1 0 1.000000
  0 -2.718863 -2.408693 -0.728912 0.794883 0.096817 -0.598989 0.876711 0.106052 1 0 1.000000
doll01
  0 -3.299326 -4.020405 -1.302923 0.654711 -0.742311 0.142574 0.699810 0.010702 1 0 1.000000
  0 -3.150679 -3.015178 -1.400612 0.345259 0.358528 -0.867326 0.892150 0.053219 1 0 1.000000
  0 -2.981915 -2.539079 -0.949300 0.429181 0.404811 -0.807423 0.892938 0.089641 1 0 1.000000
doll01
  0 -3.299326 -4.020405 -1.302923 0.654711 -0.742311 0.142574 0.699810 0.010702 1 0 1.000000
  0 -3.287241 -3.794979 -1.632556 0.366029 -0.148422 -0.918691 0.877425 0.010819 1 0 1.000000
  0 -3.150679 -3.015178 -1.400612 0.345259 0.358528 -0.867326 0.892150 0.053219 1 0 1.000000
doll01
  0 -3.559198 -3.758935 -1.541831 -0.770090 -0.247269 -0.588065 0.904553 0.010536 1 0 1.000000
  0 -3.287241 -3.794979 -1.632556 0.366029 -0.148422 -0.918691 0.877425 0.010819 1 0 1.000000
  0 -3.299326 -4.020405 -1.302923 0.654711 -0.742311 0.142574 0.699810 0.010702 1 0 1.000000
doll01
  0 -2.718863 -2.408693 -0.728912 0.794883 0.096817 -0.598989 0.604457 0.106052 1 0 1.000000
  0 -2.800026 -0.911383 -0.363460 0.130690 0.474692 -0.870395 0.639303 0.179433 1 0 1.000000
  0 -2.280560 -0.926985 -0.026752 0.764322 0.032809 -0.644000 0.616715 0.197274 1 0 1.000000
doll01
  0 -2.718863 -2.408693 -0.728912 0.794883 0.096817 -0.598989 0.604457 0.106052 1 0 1.000000
  0 -2.981915 -2.539079 -0.949300 0.429181 0.404811 -0.807423 0.620685 0.089641 1 0 1.000000
  0 -2.800026 -0.911383 -0.363460 0.130690 0.474692 -0.870395 0.639303 0.179433 1 0 1.000000
doll01
  0 -0.850729 0.606254 1.458601 0.651577 0.670204 -0.355351 0.723649 0.330164 1 0 1.000000
  0 -2.800026 -0.911383 -0.363460 0.130690 0.474692 -0.870395 0.911557 0.179433 1 0 1.000000
  0 -2.042275 0.099440 0.592773 0.064462 0.739481 -0.670084 0.897344 0.263308 1 0 1.000000
doll01
  0 -0.850729 0.606254 1.458601 0.651577 0.670204 -0.355351 0.723649 0.330164 1 0 1.000000
  0 -2.280560 -0.926985 -0.026752 0.764322 0.032809 -0.644000 0.888969 0.197274 1 0 1.000000
  0 -2.800026 -0.911383 -0.363460 0.130690 0.474692 -0.870395 0.911557 0.179433 1 0 1.000000
doll01
  0 -1.237278 0.233084 7.420708 -0.507844 0.350851 0.786764 0.935493 0.467817 1 0 1.000000
  0 0.000000 1.154959 6.764437 0.000000 0.860757 0.509015 0.885035 0.524317 1 0 1.000000
  0 -1.167870 1.097600 6.650203 -0.471701 0.727939 0.497597 0.885409 0.470987 1 0 1.000000
doll01
  0 1.237278 0.233084 7.420708 0.507844 0.350851 0.786764 0.935493 0.580816 1 0 1.000000
  0 1.167870 1.097600 6.650203 0.471701 0.727939 0.497597 0.885409 0.577646 1 0 1.000000
  0 0.000000 1.154959 6.764437 0.000000 0.860757 0.509015 0.885035 0.524317 1 0 1.000000
doll01
  0 1.237278 0.233084 7.420708 0.507844 0.350851 0.786764 0.935493 0.580816 1 0 1.000000
  0 0.000000 1.154959 6.764437 0.000000 0.860757 0.509015 0.885035 0.524317 1 0 1.000000
  0 1.266741 -1.098563 7.447543 0.526076 -0.200354 0.826500 0.991950 0.582161 1 0 1.000000
doll01
  0 -1.237278 0.233084 7.420708 -0.507844 0.350851 0.786764 0.935493 0.467817 1 0 1.000000
  0 1.266741 -1.098563 7.447543 0.526076 -0.200354 0.826500 0.991950 0.582161 1 0 1.000000
  0 0.000000 1.154959 6.764437 0.000000 0.860757 0.509015 0.885035 0.524317 1 0 1.000000
doll01
  0 -1.237278 0.233084 7.420708 -0.507844 0.350851 0.786764 0.935493 0.467817 1 0 1.000000
  0 -1.266741 -1.098563 7.447543 -0.526076 -0.200354 0.826500 0.991950 0.466472 1 0 1.000000
  0 1.266741 -1.098563 7.447543 0.526076 -0.200354 0.826500 0.991950 0.582161 1 0 1.000000
doll01
  0 -1.590588 -2.057152 2.968709 -0.670209 -0.192132 -0.716872 0.470361 0.021375 1 0 1.000000
  0 1.610039 -0.909970 2.911349 0.620186 0.202640 -0.757830 0.534636 0.208576 1 0 1.000000
  0 1.590588 -2.057152 2.968709 0.673342 -0.187419 -0.715181 0.470361 0.207438 1 0 1.000000
doll01
  0 -1.590588 -2.057152 2.968709 -0.670209 -0.192132 -0.716872 0.470361 0.021375 1 0 1.000000
  0 -1.610039 -0.909970 2.911349 -0.620186 0.202640 -0.757830 0.534636 0.020237 1 0 1.000000
  0 1.610039 -0.909970 2.911349 0.620186 0.202640 -0.757830 0.534636 0.208576 1 0 1.000000
doll01
  0 1.610039 -0.909970 2.911349 0.620186 0.202640 -0.757830 0.534636 0.208576 1 0 1.000000
  0 -1.610039 -0.909970 2.911349 -0.620186 0.202640 -0.757830 0.534636 0.020237 1 0 1.000000
  0 -1.590588 -0.043650 3.442175 -0.499431 0.441306 -0.745531 0.591328 0.021375 1 0 1.000000
doll01
  0 1.610039 -0.909970 2.911349 0.620186 0.202640 -0.757830 0.534636 0.208576 1 0 1.000000
  0 -1.590588 -0.043650 3.442175 -0.499431 0.441306 -0.745531 0.591328 0.021375 1 0 1.000000
  0 0.000000 0.013709 2.868583 0.000000 0.501734 -0.865022 0.586438 0.114407 1 0 1.000000
doll01
  0 1.610039 -0.909970 2.911349 0.620186 0.202640 -0.757830 0.534636 0.208576 1 0 1.000000
  0 0.000000 0.013709 2.868583 0.000000 0.501734 -0.865022 0.586438 0.114407 1 0 1.000000
  0 1.590588 -0.043650 3.442175 0.499431 0.441306 -0.745531 0.591328 0.207438 1 0 1.000000
doll01
  0 -0.683487 -1.449215 -4.005132 0.998876 0.035251 -0.031689 0.333840 0.168075 1 0 1.000000
  0 -1.637104 -1.147911 -2.651757 -0.289442 -0.407804 0.865979 0.285016 0.222265 1 0 1.000000
  0 -1.355019 -3.257921 -6.315581 0.342410 -0.818976 0.460471 0.358149 0.043107 1 0 1.000000
doll01
  0 -1.355019 -3.257921 -6.315581 0.342410 -0.818976 0.460471 0.358149 0.043107 1 0 1.000000
  0 -1.355019 -3.435527 -6.467827 -0.113486 0.041496 0.992673 0.360875 0.032441 1 0 1.000000
  0 -0.916839 -3.030139 -7.741493 0.735697 0.140541 -0.662569 0.421983 0.003815 1 0 1.000000
doll01
  0 -1.355019 -3.435527 -6.467827 -0.113486 0.041496 0.992673 0.360875 0.032441 1 0 1.000000
  0 -0.893458 -4.521145 -6.583225 0.801825 -0.594819 0.057151 0.309386 0.003962 1 0 1.000000
  0 -0.916839 -3.030139 -7.741493 0.735697 0.140541 -0.662569 0.421983 0.003815 1 0 1.000000
doll01
  0 -1.355019 -3.435527 -6.467827 -0.113486 0.041496 0.992673 0.360875 0.032441 1 0 1.000000
  0 -1.625060 -4.519372 -6.659582 -0.858780 -0.499549 0.113785 0.249743 0.004677 1 0 1.000000
  0 -0.893458 -4.521145 -6.583225 0.801825 -0.594819 0.057151 0.309386 0.003962 1 0 1.000000
doll01
  0 -1.625060 -4.519372 -6.659582 -0.858780 -0.499549 0.113785 0.249743 0.004677 1 0 1.000000
  0 -1.355019 -3.435527 -6.467827 -0.113486 0.041496 0.992673 0.360875 0.032441 1 0 1.000000
  0 -1.585286 -3.010944 -7.757769 -0.697705 0.048084 -0.714769 0.148720 0.006658 1 0 1.000000
doll01
  0 -1.585286 -3.010944 -7.757769 -0.697705 0.048084 -0.714769 0.148720 0.006658 1 0 1.000000
  0 -1.355019 -3.435527 -6.467827 -0.113486 0.041496 0.992673 0.360875 0.032441 1 0 1.000000
  0 -1.355019 -3.257921 -6.315581 0.342410 -0.818976 0.460471 0.358149 0.043107 1 0 1.000000
doll01
  0 -2.306868 -1.833494 -4.456636 -0.987225 -0.155004 -0.036884 0.232847 0.147846 1 0 1.000000
  0 -1.585286 -3.010944 -7.757769 -0.697705 0.048084 -0.714769 0.148720 0.006658 1 0 1.000000
  0 -1.355019 -3.257921 -6.315581 0.342410 -0.818976 0.460471 0.358149 0.043107 1 0 1.000000
doll01
  0 -1.355019 -3.257921 -6.315581 0.342410 -0.818976 0.460471 0.358149 0.043107 1 0 1.000000
  0 -1.637104 -1.147911 -2.651757 -0.289442 -0.407804 0.865979 0.285016 0.222265 1 0 1.000000
  0 -2.306868 -1.833494 -4.456636 -0.987225 -0.155004 -0.036884 0.232847 0.147846 1 0 1.000000
doll01
  0 -1.902096 0.806360 -2.859119 -0.677281 0.616410 0.401659 0.186092 0.285133 1 0 1.000000
  0 -2.306868 -1.833494 -4.456636 -0.987225 -0.155004 -0.036884 0.232847 0.147846 1 0 1.000000
  0 -1.637104 -1.147911 -2.651757 -0.289442 -0.407804 0.865979 0.285016 0.222265 1 0 1.000000
doll01
  0 -1.637104 -1.147911 -2.651757 -0.289442 -0.407804 0.865979 0.285016 0.222265 1 0 1.000000
  0 -0.646083 1.320745 -3.043164 0.408937 0.878792 -0.245958 0.380295 0.292594 1 0 1.000000
  0 -1.902096 0.806360 -2.859119 -0.677281 0.616410 0.401659 0.186092 0.285133 1 0 1.000000
doll01
  0 -1.637104 -1.147911 -2.651757 -0.289442 -0.407804 0.865979 0.285016 0.222265 1 0 1.000000
  0 -0.683487 -1.449215 -4.005132 0.998876 0.035251 -0.031689 0.333840 0.168075 1 0 1.000000
  0 -0.646083 1.320745 -3.043164 0.408937 0.878792 -0.245958 0.380295 0.292594 1 0 1.000000
doll01
  0 -0.646083 1.320745 -3.043164 0.408937 0.878792 -0.245958 0.380295 0.292594 1 0 1.000000
  0 -0.683487 -1.449215 -4.005132 0.998876 0.035251 -0.031689 0.333840 0.168075 1 0 1.000000
  0 -1.701244 -0.907131 -4.990942 -0.403449 0.626087 -0.667266 0.446279 0.161878 1 0 1.000000
doll01
  0 -0.683487 -1.449215 -4.005132 0.998876 0.035251 -0.031689 0.333840 0.168075 1 0 1.000000
  0 -1.355019 -3.257921 -6.315581 0.342410 -0.818976 0.460471 0.358149 0.043107 1 0 1.000000
  0 -1.701244 -0.907131 -4.990942 -0.403449 0.626087 -0.667266 0.446279 0.161878 1 0 1.000000
doll01
  0 -1.355019 -3.257921 -6.315581 0.342410 -0.818976 0.460471 0.358149 0.043107 1 0 1.000000
  0 -1.054247 -2.378919 -6.874083 0.633868 0.562964 -0.530361 0.421494 0.052589 1 0 1.000000
  0 -1.701244 -0.907131 -4.990942 -0.403449 0.626087 -0.667266 0.446279 0.161878 1 0 1.000000
doll01
  0 -1.355019 -3.257921 -6.315581 0.342410 -0.818976 0.460471 0.358149 0.043107 1 0 1.000000
  0 -0.916839 -3.030139 -7.741493 0.735697 0.140541 -0.662569 0.421983 0.003815 1 0 1.000000
  0 -1.054247 -2.378919 -6.874083 0.633868 0.562964 -0.530361 0.421494 0.052589 1 0 1.000000
doll01
  0 -1.054247 -2.378919 -6.874083 0.633868 0.562964 -0.530361 0.421494 0.052589 1 0 1.000000
  0 -1.588477 -2.353999 -7.099690 -0.466256 0.563021 -0.682359 0.443035 0.048922 1 0 1.000000
  0 -1.701244 -0.907131 -4.990942 -0.403449 0.626087 -0.667266 0.446279 0.161878 1 0 1.000000
doll01
  0 -0.646083 1.320745 -3.043164 0.408937 0.878792 -0.245958 0.380295 0.292594 1 0 1.000000
  0 -1.701244 -0.907131 -4.990942 -0.403449 0.626087 -0.667266 0.446279 0.161878 1 0 1.000000
  0 -1.694860 0.641688 -4.240123 -0.175042 0.689803 -0.702518 0.433982 0.237843 1 0 1.000000
doll01
  0 -1.902096 0.806360 -2.859119 -0.677281 0.616410 0.401659 0.186092 0.285133 1 0 1.000000
  0 -0.646083 1.320745 -3.043164 0.408937 0.878792 -0.245958 0.083969 0.292594 1 0 1.000000
  0 -1.694860 0.641688 -4.240123 -0.175042 0.689803 -0.702518 0.137657 0.237843 1 0 1.000000
doll01
  0 -1.701244 -0.907131 -4.990942 -0.403449 0.626087 -0.667266 0.149953 0.161878 1 0 1.000000
  0 -1.902096 0.806360 -2.859119 -0.677281 0.616410 0.401659 0.186092 0.285133 1 0 1.000000
  0 -1.694860 0.641688 -4.240123 -0.175042 0.689803 -0.702518 0.137657 0.237843 1 0 1.000000
doll01
  0 -1.701244 -0.907131 -4.990942 -0.403449 0.626087 -0.667266 0.149953 0.161878 1 0 1.000000
  0 -2.306868 -1.833494 -4.456636 -0.987225 -0.155004 -0.036884 0.232847 0.147846 1 0 1.000000
  0 -1.902096 0.806360 -2.859119 -0.677281 0.616410 0.401659 0.186092 0.285133 1 0 1.000000
doll01
  0 -1.585286 -3.010944 -7.757769 -0.697705 0.048084 -0.714769 0.148720 0.006658 1 0 1.000000
  0 -2.306868 -1.833494 -4.456636 -0.987225 -0.155004 -0.036884 0.232847 0.147846 1 0 1.000000
  0 -1.701244 -0.907131 -4.990942 -0.403449 0.626087 -0.667266 0.149953 0.161878 1 0 1.000000
doll01
  0 -1.585286 -3.010944 -7.757769 -0.697705 0.048084 -0.714769 0.148720 0.006658 1 0 1.000000
  0 -1.701244 -0.907131 -4.990942 -0.403449 0.626087 -0.667266 0.149953 0.161878 1 0 1.000000
  0 -1.588477 -2.353999 -7.099690 -0.466256 0.563021 -0.682359 0.146709 0.048922 1 0 1.000000
doll01
  0 -1.054247 -2.378919 -6.874083 0.633868 0.562964 -0.530361 0.125169 0.052589 1 0 1.000000
  0 -1.585286 -3.010944 -7.757769 -0.697705 0.048084 -0.714769 0.148720 0.006658 1 0 1.000000
  0 -1.588477 -2.353999 -7.099690 -0.466256 0.563021 -0.682359 0.146709 0.048922 1 0 1.000000
doll01
  0 -1.054247 -2.378919 -6.874083 0.633868 0.562964 -0.530361 0.125169 0.052589 1 0 1.000000
  0 -0.916839 -3.030139 -7.741493 0.735697 0.140541 -0.662569 0.125657 0.003815 1 0 1.000000
  0 -1.585286 -3.010944 -7.757769 -0.697705 0.048084 -0.714769 0.148720 0.006658 1 0 1.000000
doll01
  0 1.585286 -1.050391 -8.497573 0.697705 0.305289 -0.648079 0.736188 0.340147 1 0 1.000000
  0 0.893458 -2.884800 -7.954245 -0.775161 -0.557604 -0.296991 0.755185 0.347118 1 0 1.000000
  0 0.916839 -1.074198 -8.489413 -0.735697 0.372361 -0.565771 0.736439 0.346883 1 0 1.000000
doll01
  0 1.585286 -1.050391 -8.497573 0.697705 0.305289 -0.648079 0.736188 0.340147 1 0 1.000000
  0 1.625060 -2.855318 -8.024703 0.713916 -0.508744 -0.481148 0.754604 0.339747 1 0 1.000000
  0 0.893458 -2.884800 -7.954245 -0.775161 -0.557604 -0.296991 0.755185 0.347118 1 0 1.000000
doll01
  0 0.806249 -0.958340 -3.970033 0.408726 -0.413558 -0.813580 0.492275 0.227182 1 0 1.000000
  0 -0.834506 0.616911 -4.026657 -0.408916 0.185197 -0.893583 0.586953 0.281088 1 0 1.000000
  0 -1.068528 1.759441 -2.416832 -0.356455 0.933956 0.025819 0.585155 0.368619 1 0 1.000000
doll01
  0 -0.834506 0.616911 -4.026657 -0.408916 0.185197 -0.893583 0.586953 0.281088 1 0 1.000000
  0 0.806249 -0.958340 -3.970033 0.408726 -0.413558 -0.813580 0.492275 0.227182 1 0 1.000000
  0 -0.737038 -0.985852 -4.026728 -0.394357 -0.419445 -0.817648 0.587622 0.224673 1 0 1.000000
doll01
  0 -1.761047 -0.582935 2.358558 -0.611583 -0.464191 0.640697 0.167761 0.594221 1 0 1.000000
  0 -2.326358 0.616911 -2.394922 -0.861489 0.475560 -0.177988 0.146688 0.374705 1 0 1.000000
  0 0.656960 -1.999037 -2.880761 0.357719 -0.858189 -0.368170 0.321034 0.366894 1 0 1.000000
doll01
  0 -1.761047 -0.582935 2.358558 -0.611583 -0.464191 0.640697 0.167761 0.594221 1 0 1.000000
  0 -1.068528 1.759441 -2.416832 -0.356455 0.933956 0.025819 0.088683 0.368619 1 0 1.000000
  0 -2.326358 0.616911 -2.394922 -0.861489 0.475560 -0.177988 0.146688 0.374705 1 0 1.000000
doll01
  0 -0.834506 0.616911 -4.026657 -0.408916 0.185197 -0.893583 0.123679 0.302037 1 0 1.000000
  0 -2.326358 0.616911 -2.394922 -0.861489 0.475560 -0.177988 0.146688 0.374705 1 0 1.000000
  0 -1.068528 1.759441 -2.416832 -0.356455 0.933956 0.025819 0.088683 0.368619 1 0 1.000000
doll01
  0 -2.326358 0.616911 -2.394922 -0.861489 0.475560 -0.177988 0.146688 0.374705 1 0 1.000000
  0 -0.834506 0.616911 -4.026657 -0.408916 0.185197 -0.893583 0.123679 0.302037 1 0 1.000000
  0 -0.737038 -0.985852 -4.026728 -0.394357 -0.419445 -0.817648 0.244959 0.309927 1 0 1.000000
doll01
  0 -2.326358 0.616911 -2.394922 -0.861489 0.475560 -0.177988 0.146688 0.374705 1 0 1.000000
  0 -0.737038 -0.985852 -4.026728 -0.394357 -0.419445 -0.817648 0.244959 0.309927 1 0 1.000000
  0 0.656960 -1.999037 -2.880761 0.357719 -0.858189 -0.368170 0.321034 0.366894 1 0 1.000000
doll01
  0 0.656960 -1.999037 -2.880761 0.357719 -0.858189 -0.368170 0.321034 0.366894 1 0 1.000000
  0 -0.737038 -0.985852 -4.026728 -0.394357 -0.419445 -0.817648 0.244959 0.309927 1 0 1.000000
  0 0.806249 -0.958340 -3.970033 0.408726 -0.413558 -0.813580 0.492275 0.227182 1 0 1.000000
doll01
  0 0.806249 -0.958340 -3.970033 0.408726 -0.413558 -0.813580 0.492275 0.227182 1 0 1.000000
  0 2.380852 0.616911 -2.394922 0.860228 0.477448 -0.179028 0.444417 0.376567 1 0 1.000000
  0 0.656960 -1.999037 -2.880761 0.357719 -0.858189 -0.368170 0.321034 0.366894 1 0 1.000000
doll01
  0 0.806249 -0.958340 -3.970033 0.408726 -0.413558 -0.813580 0.492275 0.227182 1 0 1.000000
  0 -1.068528 1.759441 -2.416832 -0.356455 0.933956 0.025819 0.585155 0.368619 1 0 1.000000
  0 2.380852 0.616911 -2.394922 0.860228 0.477448 -0.179028 0.444417 0.376567 1 0 1.000000
doll01
  0 2.380852 0.616911 -2.394922 0.860228 0.477448 -0.179028 0.444417 0.376567 1 0 1.000000
  0 -1.068528 1.759441 -2.416832 -0.356455 0.933956 0.025819 0.585155 0.368619 1 0 1.000000
  0 -0.662714 1.099225 -0.462609 -0.273644 0.960513 0.050340 0.579565 0.459752 1 0 1.000000
doll01
  0 2.380852 0.616911 -2.394922 0.860228 0.477448 -0.179028 0.444417 0.376567 1 0 1.000000
  0 -0.662714 1.099225 -0.462609 -0.273644 0.960513 0.050340 0.579565 0.459752 1 0 1.000000
  0 0.719304 1.099225 -0.462609 0.274022 0.960361 0.051170 0.509348 0.460299 1 0 1.000000
doll01
  0 2.380852 0.616911 -2.394922 0.860228 0.477448 -0.179028 0.444417 0.376567 1 0 1.000000
  0 0.719304 1.099225 -0.462609 0.274022 0.960361 0.051170 0.509348 0.460299 1 0 1.000000
  0 2.118559 0.536367 1.134168 0.800019 0.598749 0.038319 0.457366 0.535300 1 0 1.000000
doll01
  0 0.476999 0.762975 2.854466 0.278748 0.870831 0.404912 0.522670 0.610775 1 0 1.000000
  0 2.118559 0.536367 1.134168 0.800019 0.598749 0.038319 0.457366 0.535300 1 0 1.000000
  0 0.719304 1.099225 -0.462609 0.274022 0.960361 0.051170 0.509348 0.460299 1 0 1.000000
doll01
  0 2.118559 -0.985852 1.134168 0.903309 -0.425796 0.052251 0.402742 0.542761 1 0 1.000000
  0 2.118559 0.536367 1.134168 0.800019 0.598749 0.038319 0.457366 0.535300 1 0 1.000000
  0 0.476999 0.762975 2.854466 0.278748 0.870831 0.404912 0.522670 0.610775 1 0 1.000000
doll01
  0 2.118559 -0.985852 1.134168 0.903309 -0.425796 0.052251 0.402742 0.542761 1 0 1.000000
  0 0.476999 0.762975 2.854466 0.278748 0.870831 0.404912 0.522670 0.610775 1 0 1.000000
  0 0.793628 -0.442615 2.854466 0.486657 -0.733845 0.473958 0.337649 0.616809 1 0 1.000000
doll01
  0 -1.761047 -0.582935 2.358558 -0.611583 -0.464191 0.640697 0.167761 0.594221 1 0 1.000000
  0 2.118559 -0.985852 1.134168 0.903309 -0.425796 0.052251 0.402742 0.542761 1 0 1.000000
  0 0.793628 -0.442615 2.854466 0.486657 -0.733845 0.473958 0.337649 0.616809 1 0 1.000000
doll01
  0 -1.761047 -0.582935 2.358558 -0.611583 -0.464191 0.640697 0.167761 0.594221 1 0 1.000000
  0 0.793628 -0.442615 2.854466 0.486657 -0.733845 0.473958 0.337649 0.616809 1 0 1.000000
  0 -0.737038 -0.442615 2.854466 -0.486256 -0.736082 0.470891 0.255907 0.616203 1 0 1.000000
doll01
  0 -0.737038 -0.442615 2.854466 -0.486256 -0.736082 0.470891 0.255907 0.616203 1 0 1.000000
  0 -0.737038 0.446345 2.854466 -0.713151 0.387133 0.584417 0.095403 0.611846 1 0 1.000000
  0 -1.761047 -0.582935 2.358558 -0.611583 -0.464191 0.640697 0.167761 0.594221 1 0 1.000000
doll01
  0 -0.737038 0.446345 2.854466 -0.713151 0.387133 0.584417 0.095403 0.611846 1 0 1.000000
  0 -0.662714 1.099225 -0.462609 -0.273644 0.960513 0.050340 0.083092 0.459752 1 0 1.000000
  0 -1.761047 -0.582935 2.358558 -0.611583 -0.464191 0.640697 0.167761 0.594221 1 0 1.000000
doll01
  0 0.719304 1.099225 -0.462609 0.274022 0.960361 0.051170 0.012876 0.460299 1 0 1.000000
  0 -0.662714 1.099225 -0.462609 -0.273644 0.960513 0.050340 0.083092 0.459752 1 0 1.000000
  0 -0.737038 0.446345 2.854466 -0.713151 0.387133 0.584417 0.095403 0.611846 1 0 1.000000
doll01
  0 0.719304 1.099225 -0.462609 0.274022 0.960361 0.051170 0.012876 0.460299 1 0 1.000000
  0 -0.737038 0.446345 2.854466 -0.713151 0.387133 0.584417 0.095403 0.611846 1 0 1.000000
  0 0.476999 0.762975 2.854466 0.278748 0.870831 0.404912 0.026197 0.610775 1 0 1.000000
doll01
  0 2.380852 0.616911 -2.394922 0.860228 0.477448 -0.179028 0.444417 0.376567 1 0 1.000000
  0 2.118559 0.536367 1.134168 0.800019 0.598749 0.038319 0.457366 0.535300 1 0 1.000000
  0 2.118559 -0.985852 1.134168 0.903309 -0.425796 0.052251 0.402742 0.542761 1 0 1.000000
doll01
  0 2.118559 -0.985852 1.134168 0.903309 -0.425796 0.052251 0.402742 0.542761 1 0 1.000000
  0 0.656960 -1.999037 -2.880761 0.357719 -0.858189 -0.368170 0.321034 0.366894 1 0 1.000000
  0 2.380852 0.616911 -2.394922 0.860228 0.477448 -0.179028 0.444417 0.376567 1 0 1.000000
doll01
  0 0.656960 -1.999037 -2.880761 0.357719 -0.858189 -0.368170 0.321034 0.366894 1 0 1.000000
  0 2.118559 -0.985852 1.134168 0.903309 -0.425796 0.052251 0.402742 0.542761 1 0 1.000000
  0 -1.761047 -0.582935 2.358558 -0.611583 -0.464191 0.640697 0.167761 0.594221 1 0 1.000000
doll01
  0 -1.761047 -0.582935 2.358558 -0.611583 -0.464191 0.640697 0.167761 0.594221 1 0 1.000000
  0 -0.662714 1.099225 -0.462609 -0.273644 0.960513 0.050340 0.083092 0.459752 1 0 1.000000
  0 -1.068528 1.759441 -2.416832 -0.356455 0.933956 0.025819 0.088683 0.368619 1 0 1.000000
doll01
  0 0.348439 0.635124 3.794224 0.375052 0.910307 0.175151 0.067710 0.120105 1 0 1.000000
  0 0.793628 -0.442615 2.854466 0.486657 -0.733845 0.473958 0.028189 0.198597 1 0 1.000000
  0 0.476999 0.762975 2.854466 0.278748 0.870831 0.404912 0.009548 0.130569 1 0 1.000000
doll01
  0 0.348439 0.635124 3.794224 0.375052 0.910307 0.175151 0.067710 0.120105 1 0 1.000000
  0 0.665068 -0.314764 3.794224 0.910234 -0.375044 0.175544 0.082397 0.186347 1 0 1.000000
  0 0.793628 -0.442615 2.854466 0.486657 -0.733845 0.473958 0.028189 0.198597 1 0 1.000000
doll01
  0 0.665068 -0.314764 3.794224 0.910234 -0.375044 0.175544 0.082397 0.186347 1 0 1.000000
  0 -0.737038 -0.442615 2.854466 -0.486256 -0.736082 0.470891 0.028189 0.274790 1 0 1.000000
  0 0.793628 -0.442615 2.854466 0.486657 -0.733845 0.473958 0.028189 0.198597 1 0 1.000000
doll01
  0 0.665068 -0.314764 3.794224 0.910234 -0.375044 0.175544 0.082397 0.186347 1 0 1.000000
  0 -0.608478 -0.314764 3.794224 -0.910234 -0.375044 0.175544 0.082397 0.287040 1 0 1.000000
  0 -0.737038 -0.442615 2.854466 -0.486256 -0.736082 0.470891 0.028189 0.274790 1 0 1.000000
doll01
  0 -0.608478 -0.314764 3.794224 -0.910234 -0.375044 0.175544 0.082397 0.287040 1 0 1.000000
  0 -0.737038 0.446345 2.854466 -0.713151 0.387133 0.584417 0.014444 0.317352 1 0 1.000000
  0 -0.737038 -0.442615 2.854466 -0.486256 -0.736082 0.470891 0.028189 0.274790 1 0 1.000000
doll01
  0 -0.608478 -0.314764 3.794224 -0.910234 -0.375044 0.175544 0.082397 0.287040 1 0 1.000000
  0 -0.608478 0.318495 3.794224 -0.910234 0.375044 0.175544 0.072605 0.326067 1 0 1.000000
  0 -0.737038 0.446345 2.854466 -0.713151 0.387133 0.584417 0.014444 0.317352 1 0 1.000000
doll01
  0 -0.608478 0.318495 3.794224 -0.910234 0.375044 0.175544 0.072605 0.326067 1 0 1.000000
  0 0.476999 0.762975 2.854466 0.278748 0.870831 0.404912 0.009548 0.404178 1 0 1.000000
  0 -0.737038 0.446345 2.854466 -0.713151 0.387133 0.584417 0.014444 0.317352 1 0 1.000000
doll01
  0 -0.608478 0.318495 3.794224 -0.910234 0.375044 0.175544 0.072605 0.326067 1 0 1.000000
  0 0.348439 0.635124 3.794224 0.375052 0.910307 0.175151 0.067710 0.393713 1 0 1.000000
  0 0.476999 0.762975 2.854466 0.278748 0.870831 0.404912 0.009548 0.404178 1 0 1.000000
doll01
  0 1.694860 1.068916 -3.890612 0.175042 0.898402 -0.402783 0.878087 0.583978 1 0 1.000000
  0 0.646083 1.265008 -2.528491 -0.408937 0.907988 0.091254 0.916069 0.647316 1 0 1.000000
  0 1.902096 0.718926 -2.544583 0.677281 0.427617 0.598694 0.852346 0.636811 1 0 1.000000
doll01
  0 1.694860 1.068916 -3.890612 0.175042 0.898402 -0.402783 0.878087 0.583978 1 0 1.000000
  0 1.902096 0.718926 -2.544583 0.677281 0.427617 0.598694 0.852346 0.636811 1 0 1.000000
  0 1.355019 -1.806014 -7.244602 0.287344 -0.941188 0.177761 0.724840 0.388548 1 0 1.000000
doll01
  0 1.694860 1.068916 -3.890612 0.175042 0.898402 -0.402783 0.878087 0.583978 1 0 1.000000
  0 1.355019 -1.806014 -7.244602 0.287344 -0.941188 0.177761 0.724840 0.388548 1 0 1.000000
  0 1.685743 0.020880 -6.515431 0.388307 0.892467 -0.229609 0.879042 0.451365 1 0 1.000000
doll01
  0 1.685743 0.020880 -6.515431 0.388307 0.892467 -0.229609 0.879042 0.451365 1 0 1.000000
  0 1.355019 -1.806014 -7.244602 0.287344 -0.941188 0.177761 0.724840 0.388548 1 0 1.000000
  0 1.585286 -1.050391 -8.497573 0.697705 0.305289 -0.648079 0.882068 0.346502 1 0 1.000000
doll01
  0 1.355019 -1.806014 -7.244602 0.287344 -0.941188 0.177761 0.724840 0.388548 1 0 1.000000
  0 1.625060 -2.855318 -8.024703 0.713916 -0.508744 -0.481148 0.757113 0.336478 1 0 1.000000
  0 1.585286 -1.050391 -8.497573 0.697705 0.305289 -0.648079 0.882068 0.346502 1 0 1.000000
doll01
  0 1.625060 -2.855318 -8.024703 0.713916 -0.508744 -0.481148 0.757113 0.336478 1 0 1.000000
  0 1.355019 -1.806014 -7.244602 0.287344 -0.941188 0.177761 0.724840 0.388548 1 0 1.000000
  0 0.916839 -1.074198 -8.489413 -0.735697 0.372361 -0.565771 0.636240 0.346729 1 0 1.000000
doll01
  0 1.355019 -1.806014 -7.244602 0.287344 -0.941188 0.177761 0.724840 0.388548 1 0 1.000000
  0 1.637104 -1.176498 -3.063759 -0.835293 -0.302242 0.459277 0.757848 0.581986 1 0 1.000000
  0 0.916839 -1.074198 -8.489413 -0.735697 0.372361 -0.565771 0.636240 0.346729 1 0 1.000000
doll01
  0 1.637104 -1.176498 -3.063759 -0.835293 -0.302242 0.459277 0.757848 0.581986 1 0 1.000000
  0 1.685743 0.020880 -6.515431 0.388307 0.892467 -0.229609 0.605339 0.451365 1 0 1.000000
  0 0.916839 -1.074198 -8.489413 -0.735697 0.372361 -0.565771 0.636240 0.346729 1 0 1.000000
doll01
  0 0.646083 1.265008 -2.528491 -0.408937 0.907988 0.091254 0.642367 0.647316 1 0 1.000000
  0 1.685743 0.020880 -6.515431 0.388307 0.892467 -0.229609 0.605339 0.451365 1 0 1.000000
  0 1.637104 -1.176498 -3.063759 -0.835293 -0.302242 0.459277 0.757848 0.581986 1 0 1.000000
doll01
  0 1.694860 1.068916 -3.890612 0.175042 0.898402 -0.402783 0.604384 0.583978 1 0 1.000000
  0 1.685743 0.020880 -6.515431 0.388307 0.892467 -0.229609 0.605339 0.451365 1 0 1.000000
  0 0.646083 1.265008 -2.528491 -0.408937 0.907988 0.091254 0.642367 0.647316 1 0 1.000000
doll01
  0 1.355019 -1.806014 -7.244602 0.287344 -0.941188 0.177761 0.724840 0.388548 1 0 1.000000
  0 1.902096 0.718926 -2.544583 0.677281 0.427617 0.598694 0.852346 0.636811 1 0 1.000000
  0 1.637104 -1.176498 -3.063759 -0.835293 -0.302242 0.459277 0.757848 0.581986 1 0 1.000000
doll01
  0 1.902096 0.718926 -2.544583 0.677281 0.427617 0.598694 0.852346 0.636811 1 0 1.000000
  0 0.646083 1.265008 -2.528491 -0.408937 0.907988 0.091254 0.642367 0.647316 1 0 1.000000
  0 1.637104 -1.176498 -3.063759 -0.835293 -0.302242 0.459277 0.757848 0.581986 1 0 1.000000
doll01
  0 1.585286 -1.050391 -8.497573 0.697705 0.305289 -0.648079 0.608365 0.346502 1 0 1.000000
  0 0.916839 -1.074198 -8.489413 -0.735697 0.372361 -0.565771 0.636240 0.346729 1 0 1.000000
  0 1.685743 0.020880 -6.515431 0.388307 0.892467 -0.229609 0.605339 0.451365 1 0 1.000000
doll01
  0 1.625060 -2.855318 -8.024703 0.713916 -0.508744 -0.481148 0.757113 0.336478 1 0 1.000000
  0 0.916839 -1.074198 -8.489413 -0.735697 0.372361 -0.565771 0.636240 0.346729 1 0 1.000000
  0 0.893458 -2.884800 -7.954245 -0.775161 -0.557604 -0.296991 0.725363 0.339359 1 0 1.000000
doll01
  0 -1.167870 1.097600 6.650203 -0.471701 0.727939 0.497597 0.135406 0.947468 1 0 1.000000
  0 -1.266741 -1.098563 7.447543 -0.526076 -0.200354 0.826500 0.354658 0.967174 1 0 1.000000
  0 -1.237278 0.233084 7.420708 -0.507844 0.350851 0.786764 0.219200 0.986225 1 0 1.000000
doll01
  0 0.000000 1.154959 6.764437 0.000000 0.860757 0.509015 0.035660 0.968854 1 0 1.000000
  0 0.000000 1.671192 5.512085 0.000000 0.999786 0.020689 0.034796 0.891134 1 0 1.000000
  0 -1.167870 1.097600 6.650203 -0.471701 0.727939 0.497597 0.135406 0.947468 1 0 1.000000
doll01
  0 0.000000 0.013709 2.868583 0.000000 0.501734 -0.865022 0.959665 0.685410 1 0 1.000000
  0 0.000000 1.671192 5.512085 0.000000 0.999786 0.020689 0.960612 0.891134 1 0 1.000000
  0 1.590588 -0.043650 3.442175 0.499431 0.441306 -0.745531 0.820915 0.737264 1 0 1.000000
doll01
  0 1.167870 1.097600 6.650203 0.471701 0.727939 0.497597 0.860461 0.948574 1 0 1.000000
  0 1.590588 -0.043650 3.442175 0.499431 0.441306 -0.745531 0.820915 0.737264 1 0 1.000000
  0 0.000000 1.671192 5.512085 0.000000 0.999786 0.020689 0.960612 0.891134 1 0 1.000000
doll01
  0 1.590588 -0.043650 3.442175 0.499431 0.441306 -0.745531 0.820915 0.737264 1 0 1.000000
  0 1.167870 1.097600 6.650203 0.471701 0.727939 0.497597 0.860461 0.948574 1 0 1.000000
  0 1.610039 -0.909970 2.911349 0.620186 0.202640 -0.757830 0.768613 0.693709 1 0 1.000000
doll01
  0 1.610039 -0.909970 2.911349 0.620186 0.202640 -0.757830 0.768613 0.693709 1 0 1.000000
  0 1.167870 1.097600 6.650203 0.471701 0.727939 0.497597 0.860461 0.948574 1 0 1.000000
  0 1.266741 -1.098563 7.447543 0.526076 -0.200354 0.826500 0.637626 0.968660 1 0 1.000000
doll01
  0 1.590588 -2.057152 2.968709 0.673342 -0.187419 -0.715181 0.669607 0.688241 1 0 1.000000
  0 1.610039 -0.909970 2.911349 0.620186 0.202640 -0.757830 0.768613 0.693709 1 0 1.000000
  0 1.266741 -1.098563 7.447543 0.526076 -0.200354 0.826500 0.637626 0.968660 1 0 1.000000
doll01
  0 1.266741 -1.098563 7.447543 0.526076 -0.200354 0.826500 0.637626 0.968660 1 0 1.000000
  0 -0.373000 -3.222759 3.574325 -0.221231 -0.969927 -0.101479 0.472759 0.707867 1 0 1.000000
  0 1.590588 -2.057152 2.968709 0.673342 -0.187419 -0.715181 0.669607 0.688241 1 0 1.000000
doll01
  0 -1.266741 -1.098563 7.447543 -0.526076 -0.200354 0.826500 0.354658 0.967174 1 0 1.000000
  0 -0.373000 -3.222759 3.574325 -0.221231 -0.969927 -0.101479 0.472759 0.707867 1 0 1.000000
  0 1.266741 -1.098563 7.447543 0.526076 -0.200354 0.826500 0.637626 0.968660 1 0 1.000000
doll01
  0 -1.266741 -1.098563 7.447543 -0.526076 -0.200354 0.826500 0.354658 0.967174 1 0 1.000000
  0 -1.590588 -2.057152 2.968709 -0.670209 -0.192132 -0.716872 0.324694 0.687491 1 0 1.000000
  0 -0.373000 -3.222759 3.574325 -0.221231 -0.969927 -0.101479 0.472759 0.707867 1 0 1.000000
doll01
  0 -1.610039 -0.909970 2.911349 -0.620186 0.202640 -0.757830 0.225256 0.692949 1 0 1.000000
  0 -1.590588 -2.057152 2.968709 -0.670209 -0.192132 -0.716872 0.324694 0.687491 1 0 1.000000
  0 -1.266741 -1.098563 7.447543 -0.526076 -0.200354 0.826500 0.354658 0.967174 1 0 1.000000
doll01
  0 -1.266741 -1.098563 7.447543 -0.526076 -0.200354 0.826500 0.354658 0.967174 1 0 1.000000
  0 -1.167870 1.097600 6.650203 -0.471701 0.727939 0.497597 0.135406 0.947468 1 0 1.000000
  0 -1.610039 -0.909970 2.911349 -0.620186 0.202640 -0.757830 0.225256 0.692949 1 0 1.000000
doll01
  0 -1.610039 -0.909970 2.911349 -0.620186 0.202640 -0.757830 0.225256 0.692949 1 0 1.000000
  0 -1.167870 1.097600 6.650203 -0.471701 0.727939 0.497597 0.135406 0.947468 1 0 1.000000
  0 -1.590588 -0.043650 3.442175 -0.499431 0.441306 -0.745531 0.173110 0.736545 1 0 1.000000
doll01
  0 0.000000 1.671192 5.512085 0.000000 0.999786 0.020689 0.034796 0.891134 1 0 1.000000
  0 -1.590588 -0.043650 3.442175 -0.499431 0.441306 -0.745531 0.173110 0.736545 1 0 1.000000
  0 -1.167870 1.097600 6.650203 -0.471701 0.727939 0.497597 0.135406 0.947468 1 0 1.000000
doll01
  0 0.000000 0.013709 2.868583 0.000000 0.501734 -0.865022 0.033849 0.685410 1 0 1.000000
  0 -1.590588 -0.043650 3.442175 -0.499431 0.441306 -0.745531 0.173110 0.736545 1 0 1.000000
  0 0.000000 1.671192 5.512085 0.000000 0.999786 0.020689 0.034796 0.891134 1 0 1.000000
doll01
  0 -0.373000 -3.222759 3.574325 -0.221231 -0.969927 -0.101479 0.472759 0.707867 1 0 1.000000
  0 -1.590588 -2.057152 2.968709 -0.670209 -0.192132 -0.716872 0.324694 0.687491 1 0 1.000000
  0 1.590588 -2.057152 2.968709 0.673342 -0.187419 -0.715181 0.669607 0.688241 1 0 1.000000
doll01
  0 1.167870 1.097600 6.650203 0.471701 0.727939 0.497597 0.860461 0.948574 1 0 1.000000
  0 0.000000 1.671192 5.512085 0.000000 0.999786 0.020689 0.960612 0.891134 1 0 1.000000
  0 0.000000 1.154959 6.764437 0.000000 0.860757 0.509015 0.961476 0.968854 1 0 1.000000
doll01
  0 1.167870 1.097600 6.650203 0.471701 0.727939 0.497597 0.860461 0.948574 1 0 1.000000
  0 1.237278 0.233084 7.420708 0.507844 0.350851 0.786764 0.776044 0.987959 1 0 1.000000
  0 1.266741 -1.098563 7.447543 0.526076 -0.200354 0.826500 0.637626 0.968660 1 0 1.000000
end
