// Created by Crowbar 0.74
version 1
nodes
  0 "polymsh1" -1
end
skeleton
  time 0
    0 0.000000 0.000000 0.000000 1.570796 0.000000 0.000000
end
triangles
doll01
  0 -0.916839 -3.030139 -7.741493 0.735697 0.140541 -0.662569 0.736920 0.332260 1 0 1.000000
  0 -1.625060 -4.519372 -6.659582 -0.858780 -0.499549 0.113785 0.755201 0.339396 1 0 1.000000
  0 -1.585286 -3.010944 -7.757769 -0.697705 0.048084 -0.714769 0.736674 0.338996 1 0 1.000000
doll01
  0 -0.916839 -3.030139 -7.741493 0.735697 0.140541 -0.662569 0.736920 0.332260 1 0 1.000000
  0 -0.893458 -4.521145 -6.583225 0.801825 -0.594819 0.057151 0.755557 0.332025 1 0 1.000000
  0 -1.625060 -4.519372 -6.659582 -0.858780 -0.499549 0.113785 0.755201 0.339396 1 0 1.000000
doll01
  0 1.532233 -2.745457 3.140786 0.580779 -0.571945 -0.579288 0.620495 0.700772 1 0 1.000000
  0 1.936492 -1.017738 6.567028 0.939015 -0.094936 0.330511 0.685042 0.916728 1 0 1.000000
  0 1.201671 -2.262344 6.867767 0.396393 -0.738701 0.545155 0.580698 0.908811 1 0 1.000000
doll01
  0 -1.532233 -2.745457 3.140786 -0.553705 -0.616817 -0.559417 0.373933 0.700119 1 0 1.000000
  0 -0.373000 -3.222759 3.574325 -0.221231 -0.969927 -0.101479 0.472759 0.707867 1 0 1.000000
  0 -1.643396 -2.812805 3.664766 -0.678863 -0.733918 -0.022576 0.378535 0.724925 1 0 1.000000
doll01
  0 -0.373000 -3.222759 3.574325 -0.221231 -0.969927 -0.101479 0.472759 0.707867 1 0 1.000000
  0 -1.532233 -2.745457 3.140786 -0.553705 -0.616817 -0.559417 0.373933 0.700119 1 0 1.000000
  0 1.532233 -2.745457 3.140786 0.580779 -0.571945 -0.579288 0.620495 0.700772 1 0 1.000000
doll01
  0 1.532233 -2.745457 3.140786 0.580779 -0.571945 -0.579288 0.620495 0.700772 1 0 1.000000
  0 -0.001791 -3.040831 4.484205 -0.021007 -0.598691 0.800705 0.497487 0.755998 1 0 1.000000
  0 -0.373000 -3.222759 3.574325 -0.221231 -0.969927 -0.101479 0.472759 0.707867 1 0 1.000000
doll01
  0 1.201671 -2.262344 6.867767 0.396393 -0.738701 0.545155 0.580698 0.908811 1 0 1.000000
  0 -0.001791 -3.040831 4.484205 -0.021007 -0.598691 0.800705 0.497487 0.755998 1 0 1.000000
  0 1.532233 -2.745457 3.140786 0.580779 -0.571945 -0.579288 0.620495 0.700772 1 0 1.000000
doll01
  0 1.201671 -2.262344 6.867767 0.396393 -0.738701 0.545155 0.580698 0.908811 1 0 1.000000
  0 0.000000 -2.707780 5.589416 -0.002298 -0.998394 0.056603 0.496547 0.829875 1 0 1.000000
  0 -0.001791 -3.040831 4.484205 -0.021007 -0.598691 0.800705 0.497487 0.755998 1 0 1.000000
doll01
  0 -1.201671 -2.262344 6.867767 -0.396393 -0.738701 0.545155 0.411969 0.907918 1 0 1.000000
  0 0.000000 -2.707780 5.589416 -0.002298 -0.998394 0.056603 0.496547 0.829875 1 0 1.000000
  0 1.201671 -2.262344 6.867767 0.396393 -0.738701 0.545155 0.580698 0.908811 1 0 1.000000
doll01
  0 -1.201671 -2.262344 6.867767 -0.396393 -0.738701 0.545155 0.411969 0.907918 1 0 1.000000
  0 -1.437847 -2.451398 5.540158 -0.459272 -0.887767 -0.030654 0.393636 0.829938 1 0 1.000000
  0 0.000000 -2.707780 5.589416 -0.002298 -0.998394 0.056603 0.496547 0.829875 1 0 1.000000
doll01
  0 -1.201671 -2.262344 6.867767 -0.396393 -0.738701 0.545155 0.411969 0.907918 1 0 1.000000
  0 -1.936492 -1.017738 6.567028 -0.939015 -0.094936 0.330511 0.308463 0.915101 1 0 1.000000
  0 -1.437847 -2.451398 5.540158 -0.459272 -0.887767 -0.030654 0.393636 0.829938 1 0 1.000000
doll01
  0 -1.643396 -2.812805 3.664766 -0.678863 -0.733918 -0.022576 0.378535 0.724925 1 0 1.000000
  0 -1.437847 -2.451398 5.540158 -0.459272 -0.887767 -0.030654 0.393636 0.829938 1 0 1.000000
  0 -1.936492 -1.017738 6.567028 -0.939015 -0.094936 0.330511 0.308463 0.915101 1 0 1.000000
doll01
  0 -1.610039 -0.909970 2.911349 -0.620186 0.202640 -0.757830 0.225256 0.692949 1 0 1.000000
  0 -1.643396 -2.812805 3.664766 -0.678863 -0.733918 -0.022576 0.378535 0.724925 1 0 1.000000
  0 -1.936492 -1.017738 6.567028 -0.939015 -0.094936 0.330511 0.308463 0.915101 1 0 1.000000
doll01
  0 -1.643396 -2.812805 3.664766 -0.678863 -0.733918 -0.022576 0.378535 0.724925 1 0 1.000000
  0 -1.610039 -0.909970 2.911349 -0.620186 0.202640 -0.757830 0.225256 0.692949 1 0 1.000000
  0 -1.590588 -2.057152 2.968709 -0.670209 -0.192132 -0.716872 0.324694 0.687491 1 0 1.000000
doll01
  0 -1.643396 -2.812805 3.664766 -0.678863 -0.733918 -0.022576 0.378535 0.724925 1 0 1.000000
  0 -1.590588 -2.057152 2.968709 -0.670209 -0.192132 -0.716872 0.324694 0.687491 1 0 1.000000
  0 -1.532233 -2.745457 3.140786 -0.553705 -0.616817 -0.559417 0.373933 0.700119 1 0 1.000000
doll01
  0 1.590588 -2.057152 2.968709 0.673342 -0.187419 -0.715181 0.669607 0.688241 1 0 1.000000
  0 -1.532233 -2.745457 3.140786 -0.553705 -0.616817 -0.559417 0.373933 0.700119 1 0 1.000000
  0 -1.590588 -2.057152 2.968709 -0.670209 -0.192132 -0.716872 0.324694 0.687491 1 0 1.000000
doll01
  0 1.590588 -2.057152 2.968709 0.673342 -0.187419 -0.715181 0.669607 0.688241 1 0 1.000000
  0 1.532233 -2.745457 3.140786 0.580779 -0.571945 -0.579288 0.620495 0.700772 1 0 1.000000
  0 -1.532233 -2.745457 3.140786 -0.553705 -0.616817 -0.559417 0.373933 0.700119 1 0 1.000000
doll01
  0 1.590588 -2.057152 2.968709 0.673342 -0.187419 -0.715181 0.669607 0.688241 1 0 1.000000
  0 1.610039 -0.909970 2.911349 0.620186 0.202640 -0.757830 0.768613 0.693709 1 0 1.000000
  0 1.532233 -2.745457 3.140786 0.580779 -0.571945 -0.579288 0.620495 0.700772 1 0 1.000000
doll01
  0 1.532233 -2.745457 3.140786 0.580779 -0.571945 -0.579288 0.620495 0.700772 1 0 1.000000
  0 1.610039 -0.909970 2.911349 0.620186 0.202640 -0.757830 0.768613 0.693709 1 0 1.000000
  0 1.936492 -1.017738 6.567028 0.939015 -0.094936 0.330511 0.685042 0.916728 1 0 1.000000
doll01
  0 1.610039 -0.909970 2.911349 0.620186 0.202640 -0.757830 0.768613 0.693709 1 0 1.000000
  0 1.807775 1.097600 5.397851 0.827418 0.557757 0.065473 0.842580 0.873116 1 0 1.000000
  0 1.936492 -1.017738 6.567028 0.939015 -0.094936 0.330511 0.685042 0.916728 1 0 1.000000
doll01
  0 1.807775 1.097600 5.397851 0.827418 0.557757 0.065473 0.842580 0.873116 1 0 1.000000
  0 1.237278 0.233084 7.420708 0.507844 0.350851 0.786764 0.776044 0.987959 1 0 1.000000
  0 1.936492 -1.017738 6.567028 0.939015 -0.094936 0.330511 0.685042 0.916728 1 0 1.000000
doll01
  0 1.590588 -0.043650 3.442175 0.499431 0.441306 -0.745531 0.820915 0.737264 1 0 1.000000
  0 1.807775 1.097600 5.397851 0.827418 0.557757 0.065473 0.842580 0.873116 1 0 1.000000
  0 1.610039 -0.909970 2.911349 0.620186 0.202640 -0.757830 0.768613 0.693709 1 0 1.000000
doll01
  0 -0.289317 -3.079795 4.177200 -0.554946 -0.777064 0.296996 0.470585 0.722479 1 0 1.000000
  0 -0.373000 -3.222759 3.574325 -0.221231 -0.969927 -0.101479 0.472759 0.707867 1 0 1.000000
  0 -0.001791 -3.040831 4.484205 -0.021007 -0.598691 0.800705 0.497487 0.755998 1 0 1.000000
doll01
  0 -1.643396 -2.812805 3.664766 -0.678863 -0.733918 -0.022576 0.378535 0.724925 1 0 1.000000
  0 -0.373000 -3.222759 3.574325 -0.221231 -0.969927 -0.101479 0.472759 0.707867 1 0 1.000000
  0 -0.289317 -3.079795 4.177200 -0.554946 -0.777064 0.296996 0.470585 0.722479 1 0 1.000000
doll01
  0 -1.437847 -2.451398 5.540158 -0.459272 -0.887767 -0.030654 0.393636 0.829938 1 0 1.000000
  0 -1.643396 -2.812805 3.664766 -0.678863 -0.733918 -0.022576 0.378535 0.724925 1 0 1.000000
  0 -0.289317 -3.079795 4.177200 -0.554946 -0.777064 0.296996 0.470585 0.722479 1 0 1.000000
doll01
  0 -1.437847 -2.451398 5.540158 -0.459272 -0.887767 -0.030654 0.393636 0.829938 1 0 1.000000
  0 -0.289317 -3.079795 4.177200 -0.554946 -0.777064 0.296996 0.470585 0.722479 1 0 1.000000
  0 -0.001791 -3.040831 4.484205 -0.021007 -0.598691 0.800705 0.497487 0.755998 1 0 1.000000
doll01
  0 -1.437847 -2.451398 5.540158 -0.459272 -0.887767 -0.030654 0.393636 0.829938 1 0 1.000000
  0 -0.001791 -3.040831 4.484205 -0.021007 -0.598691 0.800705 0.497487 0.755998 1 0 1.000000
  0 0.000000 -2.707780 5.589416 -0.002298 -0.998394 0.056603 0.496547 0.829875 1 0 1.000000
doll01
  0 1.807775 1.097600 5.397851 0.827418 0.557757 0.065473 0.842580 0.873116 1 0 1.000000
  0 1.167870 1.097600 6.650203 0.471701 0.727939 0.497597 0.860461 0.948574 1 0 1.000000
  0 1.237278 0.233084 7.420708 0.507844 0.350851 0.786764 0.776044 0.987959 1 0 1.000000
doll01
  0 1.807775 1.097600 5.397851 0.827418 0.557757 0.065473 0.842580 0.873116 1 0 1.000000
  0 0.000000 1.154959 6.764437 0.000000 0.860757 0.509015 0.961476 0.968854 1 0 1.000000
  0 1.167870 1.097600 6.650203 0.471701 0.727939 0.497597 0.860461 0.948574 1 0 1.000000
doll01
  0 1.807775 1.097600 5.397851 0.827418 0.557757 0.065473 0.842580 0.873116 1 0 1.000000
  0 0.000000 1.671192 5.512085 0.000000 0.999786 0.020689 0.960612 0.891134 1 0 1.000000
  0 0.000000 1.154959 6.764437 0.000000 0.860757 0.509015 0.961476 0.968854 1 0 1.000000
doll01
  0 0.000000 1.671192 5.512085 0.000000 0.999786 0.020689 0.960612 0.891134 1 0 1.000000
  0 1.807775 1.097600 5.397851 0.827418 0.557757 0.065473 0.842580 0.873116 1 0 1.000000
  0 1.590588 -0.043650 3.442175 0.499431 0.441306 -0.745531 0.820915 0.737264 1 0 1.000000
doll01
  0 0.000000 1.671192 5.512085 0.000000 0.999786 0.020689 0.960612 0.891134 1 0 1.000000
  0 1.590588 -0.043650 3.442175 0.499431 0.441306 -0.745531 0.820915 0.737264 1 0 1.000000
  0 0.000000 1.390329 4.125295 0.000000 0.914396 -0.404820 0.960202 0.805814 1 0 1.000000
doll01
  0 0.000000 0.013709 2.868583 0.000000 0.501734 -0.865022 0.959665 0.685410 1 0 1.000000
  0 0.000000 1.390329 4.125295 0.000000 0.914396 -0.404820 0.960202 0.805814 1 0 1.000000
  0 1.590588 -0.043650 3.442175 0.499431 0.441306 -0.745531 0.820915 0.737264 1 0 1.000000
doll01
  0 0.000000 0.013709 2.868583 0.000000 0.501734 -0.865022 0.033849 0.685410 1 0 1.000000
  0 -1.590588 -0.043650 3.442175 -0.499431 0.441306 -0.745531 0.173110 0.736545 1 0 1.000000
  0 0.000000 1.390329 4.125295 0.000000 0.914396 -0.404820 0.034386 0.805814 1 0 1.000000
doll01
  0 0.000000 1.390329 4.125295 0.000000 0.914396 -0.404820 0.034386 0.805814 1 0 1.000000
  0 -1.590588 -0.043650 3.442175 -0.499431 0.441306 -0.745531 0.173110 0.736545 1 0 1.000000
  0 -1.807775 1.097600 5.397851 -0.827418 0.557757 0.065473 0.152225 0.872038 1 0 1.000000
doll01
  0 -1.610039 -0.909970 2.911349 -0.620186 0.202640 -0.757830 0.225256 0.692949 1 0 1.000000
  0 -1.807775 1.097600 5.397851 -0.827418 0.557757 0.065473 0.152225 0.872038 1 0 1.000000
  0 -1.590588 -0.043650 3.442175 -0.499431 0.441306 -0.745531 0.173110 0.736545 1 0 1.000000
doll01
  0 -1.936492 -1.017738 6.567028 -0.939015 -0.094936 0.330511 0.308463 0.915101 1 0 1.000000
  0 -1.807775 1.097600 5.397851 -0.827418 0.557757 0.065473 0.152225 0.872038 1 0 1.000000
  0 -1.610039 -0.909970 2.911349 -0.620186 0.202640 -0.757830 0.225256 0.692949 1 0 1.000000
doll01
  0 -1.807775 1.097600 5.397851 -0.827418 0.557757 0.065473 0.152225 0.872038 1 0 1.000000
  0 -1.936492 -1.017738 6.567028 -0.939015 -0.094936 0.330511 0.308463 0.915101 1 0 1.000000
  0 -1.237278 0.233084 7.420708 -0.507844 0.350851 0.786764 0.219200 0.986225 1 0 1.000000
doll01
  0 -1.237278 0.233084 7.420708 -0.507844 0.350851 0.786764 0.219200 0.986225 1 0 1.000000
  0 -1.936492 -1.017738 6.567028 -0.939015 -0.094936 0.330511 0.308463 0.915101 1 0 1.000000
  0 -1.266741 -1.098563 7.447543 -0.526076 -0.200354 0.826500 0.354658 0.967174 1 0 1.000000
doll01
  0 -1.266741 -1.098563 7.447543 -0.526076 -0.200354 0.826500 0.354658 0.967174 1 0 1.000000
  0 -1.936492 -1.017738 6.567028 -0.939015 -0.094936 0.330511 0.308463 0.915101 1 0 1.000000
  0 -1.201671 -2.262344 6.867767 -0.396393 -0.738701 0.545155 0.411969 0.907918 1 0 1.000000
doll01
  0 -1.201671 -2.262344 6.867767 -0.396393 -0.738701 0.545155 0.411969 0.907918 1 0 1.000000
  0 0.000000 -1.125505 7.741048 0.000000 -0.240791 0.970577 0.494457 0.989363 1 0 1.000000
  0 -1.266741 -1.098563 7.447543 -0.526076 -0.200354 0.826500 0.354658 0.967174 1 0 1.000000
doll01
  0 1.201671 -2.262344 6.867767 0.396393 -0.738701 0.545155 0.580698 0.908811 1 0 1.000000
  0 0.000000 -1.125505 7.741048 0.000000 -0.240791 0.970577 0.494457 0.989363 1 0 1.000000
  0 -1.201671 -2.262344 6.867767 -0.396393 -0.738701 0.545155 0.411969 0.907918 1 0 1.000000
doll01
  0 1.201671 -2.262344 6.867767 0.396393 -0.738701 0.545155 0.580698 0.908811 1 0 1.000000
  0 1.266741 -1.098563 7.447543 0.526076 -0.200354 0.826500 0.637626 0.968660 1 0 1.000000
  0 0.000000 -1.125505 7.741048 0.000000 -0.240791 0.970577 0.494457 0.989363 1 0 1.000000
doll01
  0 1.266741 -1.098563 7.447543 0.526076 -0.200354 0.826500 0.637626 0.968660 1 0 1.000000
  0 1.201671 -2.262344 6.867767 0.396393 -0.738701 0.545155 0.580698 0.908811 1 0 1.000000
  0 1.936492 -1.017738 6.567028 0.939015 -0.094936 0.330511 0.685042 0.916728 1 0 1.000000
doll01
  0 1.266741 -1.098563 7.447543 0.526076 -0.200354 0.826500 0.637626 0.968660 1 0 1.000000
  0 1.936492 -1.017738 6.567028 0.939015 -0.094936 0.330511 0.685042 0.916728 1 0 1.000000
  0 1.237278 0.233084 7.420708 0.507844 0.350851 0.786764 0.776044 0.987959 1 0 1.000000
doll01
  0 0.000000 1.390329 4.125295 0.000000 0.914396 -0.404820 0.034386 0.805814 1 0 1.000000
  0 -1.807775 1.097600 5.397851 -0.827418 0.557757 0.065473 0.152225 0.872038 1 0 1.000000
  0 0.000000 1.671192 5.512085 0.000000 0.999786 0.020689 0.034796 0.891134 1 0 1.000000
doll01
  0 -1.167870 1.097600 6.650203 -0.471701 0.727939 0.497597 0.135406 0.947468 1 0 1.000000
  0 0.000000 1.671192 5.512085 0.000000 0.999786 0.020689 0.034796 0.891134 1 0 1.000000
  0 -1.807775 1.097600 5.397851 -0.827418 0.557757 0.065473 0.152225 0.872038 1 0 1.000000
doll01
  0 -1.807775 1.097600 5.397851 -0.827418 0.557757 0.065473 0.152225 0.872038 1 0 1.000000
  0 -1.237278 0.233084 7.420708 -0.507844 0.350851 0.786764 0.219200 0.986225 1 0 1.000000
  0 -1.167870 1.097600 6.650203 -0.471701 0.727939 0.497597 0.135406 0.947468 1 0 1.000000
doll01
  0 -1.167870 1.097600 6.650203 -0.471701 0.727939 0.497597 0.135406 0.947468 1 0 1.000000
  0 0.000000 1.154959 6.764437 0.000000 0.860757 0.509015 0.035660 0.968854 1 0 1.000000
  0 0.000000 1.671192 5.512085 0.000000 0.999786 0.020689 0.034796 0.891134 1 0 1.000000
doll01
  0 -1.237278 0.233084 7.420708 -0.507844 0.350851 0.786764 0.935493 0.467817 1 0 1.000000
  0 0.000000 1.154959 6.764437 0.000000 0.860757 0.509015 0.885035 0.524317 1 0 1.000000
  0 -1.167870 1.097600 6.650203 -0.471701 0.727939 0.497597 0.885409 0.470987 1 0 1.000000
doll01
  0 1.237278 0.233084 7.420708 0.507844 0.350851 0.786764 0.935493 0.580816 1 0 1.000000
  0 1.167870 1.097600 6.650203 0.471701 0.727939 0.497597 0.885409 0.577646 1 0 1.000000
  0 0.000000 1.154959 6.764437 0.000000 0.860757 0.509015 0.885035 0.524317 1 0 1.000000
doll01
  0 1.237278 0.233084 7.420708 0.507844 0.350851 0.786764 0.935493 0.580816 1 0 1.000000
  0 0.000000 1.154959 6.764437 0.000000 0.860757 0.509015 0.885035 0.524317 1 0 1.000000
  0 0.000000 0.240688 7.693994 0.000000 0.390599 0.920561 0.940048 0.524317 1 0 1.000000
doll01
  0 -1.237278 0.233084 7.420708 -0.507844 0.350851 0.786764 0.935493 0.467817 1 0 1.000000
  0 0.000000 0.240688 7.693994 0.000000 0.390599 0.920561 0.940048 0.524317 1 0 1.000000
  0 0.000000 1.154959 6.764437 0.000000 0.860757 0.509015 0.885035 0.524317 1 0 1.000000
doll01
  0 -1.237278 0.233084 7.420708 -0.507844 0.350851 0.786764 0.935493 0.467817 1 0 1.000000
  0 0.000000 -1.125505 7.741048 0.000000 -0.240791 0.970577 0.992896 0.524317 1 0 1.000000
  0 0.000000 0.240688 7.693994 0.000000 0.390599 0.920561 0.940048 0.524317 1 0 1.000000
doll01
  0 -1.237278 0.233084 7.420708 -0.507844 0.350851 0.786764 0.935493 0.467817 1 0 1.000000
  0 -1.266741 -1.098563 7.447543 -0.526076 -0.200354 0.826500 0.991950 0.466472 1 0 1.000000
  0 0.000000 -1.125505 7.741048 0.000000 -0.240791 0.970577 0.992896 0.524317 1 0 1.000000
doll01
  0 1.237278 0.233084 7.420708 0.507844 0.350851 0.786764 0.935493 0.580816 1 0 1.000000
  0 0.000000 0.240688 7.693994 0.000000 0.390599 0.920561 0.940048 0.524317 1 0 1.000000
  0 0.000000 -1.125505 7.741048 0.000000 -0.240791 0.970577 0.992896 0.524317 1 0 1.000000
doll01
  0 1.237278 0.233084 7.420708 0.507844 0.350851 0.786764 0.935493 0.580816 1 0 1.000000
  0 0.000000 -1.125505 7.741048 0.000000 -0.240791 0.970577 0.992896 0.524317 1 0 1.000000
  0 1.266741 -1.098563 7.447543 0.526076 -0.200354 0.826500 0.991950 0.582161 1 0 1.000000
doll01
  0 -1.054247 -2.378919 -6.874083 0.633868 0.562964 -0.530361 0.421494 0.052589 1 0 1.000000
  0 -1.588477 -2.353999 -7.099690 -0.466256 0.563021 -0.682359 0.443035 0.048922 1 0 1.000000
  0 -1.685743 -1.290928 -6.302415 -0.388307 0.747393 -0.539093 0.441839 0.109784 1 0 1.000000
doll01
  0 -1.668178 -3.408146 -7.069966 -0.988629 -0.071641 0.132212 0.166968 0.013472 1 0 1.000000
  0 -1.685743 -1.290928 -6.302415 -0.388307 0.747393 -0.539093 0.145514 0.109784 1 0 1.000000
  0 -1.588477 -2.353999 -7.099690 -0.466256 0.563021 -0.682359 0.146709 0.048922 1 0 1.000000
doll01
  0 -1.668178 -3.408146 -7.069966 -0.988629 -0.071641 0.132212 0.166968 0.013472 1 0 1.000000
  0 -2.306868 -1.833494 -4.456636 -0.987225 -0.155004 -0.036884 0.232847 0.147846 1 0 1.000000
  0 -1.685743 -1.290928 -6.302415 -0.388307 0.747393 -0.539093 0.145514 0.109784 1 0 1.000000
doll01
  0 -2.306868 -1.833494 -4.456636 -0.987225 -0.155004 -0.036884 0.232847 0.147846 1 0 1.000000
  0 -1.668178 -3.408146 -7.069966 -0.988629 -0.071641 0.132212 0.166968 0.013472 1 0 1.000000
  0 -1.355019 -3.257921 -6.315581 -0.287344 -0.811659 0.508569 0.255231 0.046507 1 0 1.000000
doll01
  0 -1.355019 -3.257921 -6.315581 -0.287344 -0.811659 0.508569 0.255231 0.046507 1 0 1.000000
  0 -1.595376 -2.450521 -3.828366 -0.261712 -0.835648 0.482907 0.280978 0.142106 1 0 1.000000
  0 -2.306868 -1.833494 -4.456636 -0.987225 -0.155004 -0.036884 0.232847 0.147846 1 0 1.000000
doll01
  0 -0.683487 -1.449215 -4.005132 0.998876 0.035251 -0.031689 0.333840 0.168075 1 0 1.000000
  0 -1.595376 -2.450521 -3.828366 -0.261712 -0.835648 0.482907 0.280978 0.142106 1 0 1.000000
  0 -1.355019 -3.257921 -6.315581 -0.287344 -0.811659 0.508569 0.255231 0.046507 1 0 1.000000
doll01
  0 -1.637104 -1.147911 -2.651757 -0.289442 -0.407804 0.865979 0.285016 0.222265 1 0 1.000000
  0 -1.595376 -2.450521 -3.828366 -0.261712 -0.835648 0.482907 0.280978 0.142106 1 0 1.000000
  0 -0.683487 -1.449215 -4.005132 0.998876 0.035251 -0.031689 0.333840 0.168075 1 0 1.000000
doll01
  0 -1.637104 -1.147911 -2.651757 -0.289442 -0.407804 0.865979 0.285016 0.222265 1 0 1.000000
  0 -0.683487 -1.449215 -4.005132 0.998876 0.035251 -0.031689 0.333840 0.168075 1 0 1.000000
  0 -0.337323 0.732236 -2.539238 0.778226 0.077283 0.623211 0.351976 0.285777 1 0 1.000000
doll01
  0 -1.637104 -1.147911 -2.651757 -0.289442 -0.407804 0.865979 0.285016 0.222265 1 0 1.000000
  0 -0.337323 0.732236 -2.539238 0.778226 0.077283 0.623211 0.351976 0.285777 1 0 1.000000
  0 -1.902096 0.806360 -2.859119 -0.677281 0.616410 0.401659 0.186092 0.285133 1 0 1.000000
doll01
  0 -0.337323 0.732236 -2.539238 0.778226 0.077283 0.623211 0.351976 0.285777 1 0 1.000000
  0 -0.646083 1.320745 -3.043164 0.408937 0.878792 -0.245958 0.380295 0.292594 1 0 1.000000
  0 -1.902096 0.806360 -2.859119 -0.677281 0.616410 0.401659 0.186092 0.285133 1 0 1.000000
doll01
  0 -0.683487 -1.449215 -4.005132 0.998876 0.035251 -0.031689 0.333840 0.168075 1 0 1.000000
  0 -0.646083 1.320745 -3.043164 0.408937 0.878792 -0.245958 0.380295 0.292594 1 0 1.000000
  0 -0.337323 0.732236 -2.539238 0.778226 0.077283 0.623211 0.351976 0.285777 1 0 1.000000
doll01
  0 -0.646083 1.320745 -3.043164 0.408937 0.878792 -0.245958 0.380295 0.292594 1 0 1.000000
  0 -0.683487 -1.449215 -4.005132 0.998876 0.035251 -0.031689 0.333840 0.168075 1 0 1.000000
  0 -1.701244 -0.907131 -4.990942 -0.403449 0.626087 -0.667266 0.446279 0.161878 1 0 1.000000
doll01
  0 -1.701244 -0.907131 -4.990942 -0.403449 0.626087 -0.667266 0.446279 0.161878 1 0 1.000000
  0 -0.683487 -1.449215 -4.005132 0.998876 0.035251 -0.031689 0.333840 0.168075 1 0 1.000000
  0 -1.685743 -1.290928 -6.302415 -0.388307 0.747393 -0.539093 0.441839 0.109784 1 0 1.000000
doll01
  0 -0.683487 -1.449215 -4.005132 0.998876 0.035251 -0.031689 0.333840 0.168075 1 0 1.000000
  0 -0.758896 -2.706196 -6.507636 0.992803 0.060172 -0.103543 0.397079 0.050850 1 0 1.000000
  0 -1.685743 -1.290928 -6.302415 -0.388307 0.747393 -0.539093 0.441839 0.109784 1 0 1.000000
doll01
  0 -0.758896 -2.706196 -6.507636 0.992803 0.060172 -0.103543 0.397079 0.050850 1 0 1.000000
  0 -1.054247 -2.378919 -6.874083 0.633868 0.562964 -0.530361 0.421494 0.052589 1 0 1.000000
  0 -1.685743 -1.290928 -6.302415 -0.388307 0.747393 -0.539093 0.441839 0.109784 1 0 1.000000
doll01
  0 -0.758896 -2.706196 -6.507636 0.992803 0.060172 -0.103543 0.397079 0.050850 1 0 1.000000
  0 -0.916839 -3.030139 -7.741493 0.735697 0.140541 -0.662569 0.421983 0.003815 1 0 1.000000
  0 -1.054247 -2.378919 -6.874083 0.633868 0.562964 -0.530361 0.421494 0.052589 1 0 1.000000
doll01
  0 -0.758896 -2.706196 -6.507636 0.992803 0.060172 -0.103543 0.397079 0.050850 1 0 1.000000
  0 -0.758896 -3.111541 -6.953953 0.981867 0.032501 0.186762 0.402221 0.023592 1 0 1.000000
  0 -0.916839 -3.030139 -7.741493 0.735697 0.140541 -0.662569 0.421983 0.003815 1 0 1.000000
doll01
  0 -0.758896 -3.111541 -6.953953 0.981867 0.032501 0.186762 0.402221 0.023592 1 0 1.000000
  0 -0.893458 -4.521145 -6.583225 0.801825 -0.594819 0.057151 0.309386 0.003962 1 0 1.000000
  0 -0.916839 -3.030139 -7.741493 0.735697 0.140541 -0.662569 0.421983 0.003815 1 0 1.000000
doll01
  0 -1.355019 -3.435527 -6.467827 -0.311733 -0.227839 0.922449 0.254170 0.035842 1 0 1.000000
  0 -0.893458 -4.521145 -6.583225 0.801825 -0.594819 0.057151 0.309386 0.003962 1 0 1.000000
  0 -0.758896 -3.111541 -6.953953 0.981867 0.032501 0.186762 0.402221 0.023592 1 0 1.000000
doll01
  0 -0.683487 -1.449215 -4.005132 0.998876 0.035251 -0.031689 0.333840 0.168075 1 0 1.000000
  0 -1.355019 -3.257921 -6.315581 -0.287344 -0.811659 0.508569 0.255231 0.046507 1 0 1.000000
  0 -0.758896 -2.706196 -6.507636 0.992803 0.060172 -0.103543 0.397079 0.050850 1 0 1.000000
doll01
  0 -1.668178 -3.408146 -7.069966 -0.988629 -0.071641 0.132212 0.166968 0.013472 1 0 1.000000
  0 -1.355019 -3.435527 -6.467827 -0.311733 -0.227839 0.922449 0.254170 0.035842 1 0 1.000000
  0 -1.355019 -3.257921 -6.315581 -0.287344 -0.811659 0.508569 0.255231 0.046507 1 0 1.000000
doll01
  0 -0.646083 1.320745 -3.043164 0.408937 0.878792 -0.245958 0.380295 0.292594 1 0 1.000000
  0 -1.701244 -0.907131 -4.990942 -0.403449 0.626087 -0.667266 0.446279 0.161878 1 0 1.000000
  0 -1.694860 0.641688 -4.240123 -0.175042 0.689803 -0.702518 0.433982 0.237843 1 0 1.000000
doll01
  0 -0.758896 -3.111541 -6.953953 0.981867 0.032501 0.186762 0.402221 0.023592 1 0 1.000000
  0 -1.355019 -3.257921 -6.315581 -0.287344 -0.811659 0.508569 0.461067 0.039706 1 0 1.000000
  0 -1.355019 -3.435527 -6.467827 -0.311733 -0.227839 0.922449 0.467580 0.029041 1 0 1.000000
doll01
  0 -0.758896 -3.111541 -6.953953 0.981867 0.032501 0.186762 0.402221 0.023592 1 0 1.000000
  0 -0.758896 -2.706196 -6.507636 0.992803 0.060172 -0.103543 0.397079 0.050850 1 0 1.000000
  0 -1.355019 -3.257921 -6.315581 -0.287344 -0.811659 0.508569 0.461067 0.039706 1 0 1.000000
doll01
  0 -1.902096 0.806360 -2.859119 -0.677281 0.616410 0.401659 0.186092 0.285133 1 0 1.000000
  0 -0.646083 1.320745 -3.043164 0.408937 0.878792 -0.245958 0.083969 0.292594 1 0 1.000000
  0 -1.694860 0.641688 -4.240123 -0.175042 0.689803 -0.702518 0.137657 0.237843 1 0 1.000000
doll01
  0 -1.694860 0.641688 -4.240123 -0.175042 0.689803 -0.702518 0.137657 0.237843 1 0 1.000000
  0 -2.506391 -0.233562 -3.387273 -0.979968 0.069648 0.186581 0.221180 0.235803 1 0 1.000000
  0 -1.902096 0.806360 -2.859119 -0.677281 0.616410 0.401659 0.186092 0.285133 1 0 1.000000
doll01
  0 -1.637104 -1.147911 -2.651757 -0.289442 -0.407804 0.865979 0.285016 0.222265 1 0 1.000000
  0 -1.902096 0.806360 -2.859119 -0.677281 0.616410 0.401659 0.186092 0.285133 1 0 1.000000
  0 -2.506391 -0.233562 -3.387273 -0.979968 0.069648 0.186581 0.221180 0.235803 1 0 1.000000
doll01
  0 -2.506391 -0.233562 -3.387273 -0.979968 0.069648 0.186581 0.221180 0.235803 1 0 1.000000
  0 -1.595376 -2.450521 -3.828366 -0.261712 -0.835648 0.482907 0.280978 0.142106 1 0 1.000000
  0 -1.637104 -1.147911 -2.651757 -0.289442 -0.407804 0.865979 0.285016 0.222265 1 0 1.000000
doll01
  0 -2.506391 -0.233562 -3.387273 -0.979968 0.069648 0.186581 0.221180 0.235803 1 0 1.000000
  0 -2.306868 -1.833494 -4.456636 -0.987225 -0.155004 -0.036884 0.232847 0.147846 1 0 1.000000
  0 -1.595376 -2.450521 -3.828366 -0.261712 -0.835648 0.482907 0.280978 0.142106 1 0 1.000000
doll01
  0 -1.701244 -0.907131 -4.990942 -0.403449 0.626087 -0.667266 0.149953 0.161878 1 0 1.000000
  0 -2.306868 -1.833494 -4.456636 -0.987225 -0.155004 -0.036884 0.232847 0.147846 1 0 1.000000
  0 -2.506391 -0.233562 -3.387273 -0.979968 0.069648 0.186581 0.221180 0.235803 1 0 1.000000
doll01
  0 -1.701244 -0.907131 -4.990942 -0.403449 0.626087 -0.667266 0.149953 0.161878 1 0 1.000000
  0 -1.685743 -1.290928 -6.302415 -0.388307 0.747393 -0.539093 0.145514 0.109784 1 0 1.000000
  0 -2.306868 -1.833494 -4.456636 -0.987225 -0.155004 -0.036884 0.232847 0.147846 1 0 1.000000
doll01
  0 -1.701244 -0.907131 -4.990942 -0.403449 0.626087 -0.667266 0.149953 0.161878 1 0 1.000000
  0 -2.506391 -0.233562 -3.387273 -0.979968 0.069648 0.186581 0.221180 0.235803 1 0 1.000000
  0 -1.694860 0.641688 -4.240123 -0.175042 0.689803 -0.702518 0.137657 0.237843 1 0 1.000000
doll01
  0 -1.355019 -3.435527 -6.467827 -0.311733 -0.227839 0.922449 0.254170 0.035842 1 0 1.000000
  0 -1.625060 -4.519372 -6.659582 -0.858780 -0.499549 0.113785 0.249743 0.004677 1 0 1.000000
  0 -0.893458 -4.521145 -6.583225 0.801825 -0.594819 0.057151 0.309386 0.003962 1 0 1.000000
doll01
  0 -1.625060 -4.519372 -6.659582 -0.858780 -0.499549 0.113785 0.249743 0.004677 1 0 1.000000
  0 -1.355019 -3.435527 -6.467827 -0.311733 -0.227839 0.922449 0.254170 0.035842 1 0 1.000000
  0 -1.668178 -3.408146 -7.069966 -0.988629 -0.071641 0.132212 0.166968 0.013472 1 0 1.000000
doll01
  0 -1.585286 -3.010944 -7.757769 -0.697705 0.048084 -0.714769 0.148720 0.006658 1 0 1.000000
  0 -1.625060 -4.519372 -6.659582 -0.858780 -0.499549 0.113785 0.249743 0.004677 1 0 1.000000
  0 -1.668178 -3.408146 -7.069966 -0.988629 -0.071641 0.132212 0.166968 0.013472 1 0 1.000000
doll01
  0 -1.588477 -2.353999 -7.099690 -0.466256 0.563021 -0.682359 0.146709 0.048922 1 0 1.000000
  0 -1.585286 -3.010944 -7.757769 -0.697705 0.048084 -0.714769 0.148720 0.006658 1 0 1.000000
  0 -1.668178 -3.408146 -7.069966 -0.988629 -0.071641 0.132212 0.166968 0.013472 1 0 1.000000
doll01
  0 -1.054247 -2.378919 -6.874083 0.633868 0.562964 -0.530361 0.125169 0.052589 1 0 1.000000
  0 -1.585286 -3.010944 -7.757769 -0.697705 0.048084 -0.714769 0.148720 0.006658 1 0 1.000000
  0 -1.588477 -2.353999 -7.099690 -0.466256 0.563021 -0.682359 0.146709 0.048922 1 0 1.000000
doll01
  0 -1.054247 -2.378919 -6.874083 0.633868 0.562964 -0.530361 0.125169 0.052589 1 0 1.000000
  0 -0.916839 -3.030139 -7.741493 0.735697 0.140541 -0.662569 0.125657 0.003815 1 0 1.000000
  0 -1.585286 -3.010944 -7.757769 -0.697705 0.048084 -0.714769 0.148720 0.006658 1 0 1.000000
doll01
  0 -0.662714 1.099225 -0.462609 -0.273644 0.960513 0.050340 0.083092 0.459752 1 0 1.000000
  0 0.793628 1.297476 0.601372 0.262079 0.964320 -0.037423 0.015884 0.507125 1 0 1.000000
  0 0.719304 1.099225 -0.462609 0.274022 0.960361 0.051170 0.012876 0.460299 1 0 1.000000
doll01
  0 -0.737038 0.446345 2.854466 -0.713151 0.387133 0.584417 0.095403 0.611846 1 0 1.000000
  0 -0.420408 0.762975 2.854466 -0.269656 0.872371 0.407743 0.072768 0.610420 1 0 1.000000
  0 -0.662714 1.099225 -0.462609 -0.273644 0.960513 0.050340 0.083092 0.459752 1 0 1.000000
doll01
  0 0.793628 1.297476 0.601372 0.262079 0.964320 -0.037423 0.015884 0.507125 1 0 1.000000
  0 -0.662714 1.099225 -0.462609 -0.273644 0.960513 0.050340 0.083092 0.459752 1 0 1.000000
  0 -0.420408 0.762975 2.854466 -0.269656 0.872371 0.407743 0.072768 0.610420 1 0 1.000000
doll01
  0 0.793628 1.297476 0.601372 0.262079 0.964320 -0.037423 0.015884 0.507125 1 0 1.000000
  0 -0.420408 0.762975 2.854466 -0.269656 0.872371 0.407743 0.072768 0.610420 1 0 1.000000
  0 0.476999 0.762975 2.854466 0.278748 0.870831 0.404912 0.026197 0.610775 1 0 1.000000
doll01
  0 -1.222065 -1.746961 0.856723 -0.301785 -0.926707 0.223920 0.232097 0.532713 1 0 1.000000
  0 1.278655 -1.746961 0.856723 0.295254 -0.929250 0.222080 0.357173 0.533702 1 0 1.000000
  0 0.793628 -0.442615 2.854466 0.486657 -0.733845 0.473958 0.337649 0.616809 1 0 1.000000
doll01
  0 -1.222065 -1.746961 0.856723 -0.301785 -0.926707 0.223920 0.232097 0.532713 1 0 1.000000
  0 0.793628 -0.442615 2.854466 0.486657 -0.733845 0.473958 0.337649 0.616809 1 0 1.000000
  0 -0.737038 -0.442615 2.854466 -0.486256 -0.736082 0.470891 0.255907 0.616203 1 0 1.000000
doll01
  0 -0.737038 -0.442615 2.854466 -0.486256 -0.736082 0.470891 0.255907 0.616203 1 0 1.000000
  0 -1.761047 -0.582935 2.358558 -0.611583 -0.464191 0.640697 0.167761 0.594221 1 0 1.000000
  0 -1.222065 -1.746961 0.856723 -0.301785 -0.926707 0.223920 0.232097 0.532713 1 0 1.000000
doll01
  0 -0.737038 -0.442615 2.854466 -0.486256 -0.736082 0.470891 0.255907 0.616203 1 0 1.000000
  0 -0.737038 0.446345 2.854466 -0.713151 0.387133 0.584417 0.095403 0.611846 1 0 1.000000
  0 -1.761047 -0.582935 2.358558 -0.611583 -0.464191 0.640697 0.167761 0.594221 1 0 1.000000
doll01
  0 -2.061969 0.536367 1.134168 -0.798016 0.600969 0.044791 0.134646 0.533646 1 0 1.000000
  0 -1.761047 -0.582935 2.358558 -0.611583 -0.464191 0.640697 0.167761 0.594221 1 0 1.000000
  0 -0.737038 0.446345 2.854466 -0.713151 0.387133 0.584417 0.095403 0.611846 1 0 1.000000
doll01
  0 -0.737038 0.446345 2.854466 -0.713151 0.387133 0.584417 0.095403 0.611846 1 0 1.000000
  0 -0.662714 1.099225 -0.462609 -0.273644 0.960513 0.050340 0.083092 0.459752 1 0 1.000000
  0 -2.061969 0.536367 1.134168 -0.798016 0.600969 0.044791 0.134646 0.533646 1 0 1.000000
doll01
  0 -2.061969 0.536367 1.134168 -0.798016 0.600969 0.044791 0.134646 0.533646 1 0 1.000000
  0 -0.662714 1.099225 -0.462609 -0.273644 0.960513 0.050340 0.083092 0.459752 1 0 1.000000
  0 -1.068528 1.759441 -2.416832 -0.356455 0.933956 0.025819 0.088683 0.368619 1 0 1.000000
doll01
  0 -2.061969 0.536367 1.134168 -0.798016 0.600969 0.044791 0.134646 0.533646 1 0 1.000000
  0 -1.068528 1.759441 -2.416832 -0.356455 0.933956 0.025819 0.088683 0.368619 1 0 1.000000
  0 -2.326358 0.616911 -2.394922 -0.861489 0.475560 -0.177988 0.146688 0.374705 1 0 1.000000
doll01
  0 -0.834506 0.616911 -4.026657 -0.408916 0.185197 -0.893583 0.123679 0.302037 1 0 1.000000
  0 -2.326358 0.616911 -2.394922 -0.861489 0.475560 -0.177988 0.146688 0.374705 1 0 1.000000
  0 -1.068528 1.759441 -2.416832 -0.356455 0.933956 0.025819 0.088683 0.368619 1 0 1.000000
doll01
  0 -2.061969 -0.985852 -2.306429 -0.820694 -0.526511 -0.221917 0.201018 0.386637 1 0 1.000000
  0 -2.326358 0.616911 -2.394922 -0.861489 0.475560 -0.177988 0.146688 0.374705 1 0 1.000000
  0 -0.834506 0.616911 -4.026657 -0.408916 0.185197 -0.893583 0.123679 0.302037 1 0 1.000000
doll01
  0 -2.061969 -0.985852 -2.306429 -0.820694 -0.526511 -0.221917 0.201018 0.386637 1 0 1.000000
  0 -0.834506 0.616911 -4.026657 -0.408916 0.185197 -0.893583 0.123679 0.302037 1 0 1.000000
  0 -0.737038 -0.985852 -4.026728 -0.394357 -0.419445 -0.817648 0.244959 0.309927 1 0 1.000000
doll01
  0 -2.061969 -0.985852 -2.306429 -0.820694 -0.526511 -0.221917 0.201018 0.386637 1 0 1.000000
  0 -0.737038 -0.985852 -4.026728 -0.394357 -0.419445 -0.817648 0.244959 0.309927 1 0 1.000000
  0 -0.664378 -2.001277 -2.906677 -0.341493 -0.861971 -0.374685 0.268006 0.365218 1 0 1.000000
doll01
  0 -0.664378 -2.001277 -2.906677 -0.341493 -0.861971 -0.374685 0.268006 0.365218 1 0 1.000000
  0 -0.737038 -0.985852 -4.026728 -0.394357 -0.419445 -0.817648 0.244959 0.309927 1 0 1.000000
  0 0.806249 -0.958340 -3.970033 0.408726 -0.413558 -0.813580 0.349450 0.312948 1 0 1.000000
doll01
  0 -0.664378 -2.001277 -2.906677 -0.341493 -0.861971 -0.374685 0.268006 0.365218 1 0 1.000000
  0 0.806249 -0.958340 -3.970033 0.408726 -0.413558 -0.813580 0.349450 0.312948 1 0 1.000000
  0 0.656960 -1.999037 -2.880761 0.357719 -0.858189 -0.368170 0.321034 0.366894 1 0 1.000000
doll01
  0 0.806249 -0.958340 -3.970033 0.408726 -0.413558 -0.813580 0.349450 0.312948 1 0 1.000000
  0 2.118559 -0.819256 -2.449943 0.820859 -0.521734 -0.232345 0.395118 0.381032 1 0 1.000000
  0 0.656960 -1.999037 -2.880761 0.357719 -0.858189 -0.368170 0.321034 0.366894 1 0 1.000000
doll01
  0 2.118559 -0.985852 1.134168 0.903309 -0.425796 0.052251 0.402742 0.542761 1 0 1.000000
  0 0.656960 -1.999037 -2.880761 0.357719 -0.858189 -0.368170 0.321034 0.366894 1 0 1.000000
  0 2.118559 -0.819256 -2.449943 0.820859 -0.521734 -0.232345 0.395118 0.381032 1 0 1.000000
doll01
  0 2.380852 0.616911 -2.394922 0.860228 0.477448 -0.179028 0.444417 0.376567 1 0 1.000000
  0 2.118559 -0.985852 1.134168 0.903309 -0.425796 0.052251 0.402742 0.542761 1 0 1.000000
  0 2.118559 -0.819256 -2.449943 0.820859 -0.521734 -0.232345 0.395118 0.381032 1 0 1.000000
doll01
  0 2.380852 0.616911 -2.394922 0.860228 0.477448 -0.179028 0.444417 0.376567 1 0 1.000000
  0 2.118559 0.536367 1.134168 0.800019 0.598749 0.038319 0.457366 0.535300 1 0 1.000000
  0 2.118559 -0.985852 1.134168 0.903309 -0.425796 0.052251 0.402742 0.542761 1 0 1.000000
doll01
  0 -2.061969 0.536367 1.134168 -0.798016 0.600969 0.044791 0.134646 0.533646 1 0 1.000000
  0 -2.061969 -0.985852 1.134168 -0.908939 -0.413428 0.053918 0.187892 0.541107 1 0 1.000000
  0 -1.761047 -0.582935 2.358558 -0.611583 -0.464191 0.640697 0.167761 0.594221 1 0 1.000000
doll01
  0 -2.326358 0.616911 -2.394922 -0.861489 0.475560 -0.177988 0.146688 0.374705 1 0 1.000000
  0 -2.061969 -0.985852 1.134168 -0.908939 -0.413428 0.053918 0.187892 0.541107 1 0 1.000000
  0 -2.061969 0.536367 1.134168 -0.798016 0.600969 0.044791 0.134646 0.533646 1 0 1.000000
doll01
  0 -2.326358 0.616911 -2.394922 -0.861489 0.475560 -0.177988 0.146688 0.374705 1 0 1.000000
  0 -2.061969 -0.985852 -2.306429 -0.820694 -0.526511 -0.221917 0.201018 0.386637 1 0 1.000000
  0 -2.061969 -0.985852 1.134168 -0.908939 -0.413428 0.053918 0.187892 0.541107 1 0 1.000000
doll01
  0 -1.222065 -1.746961 0.856723 -0.301785 -0.926707 0.223920 0.232097 0.532713 1 0 1.000000
  0 -2.061969 -0.985852 1.134168 -0.908939 -0.413428 0.053918 0.187892 0.541107 1 0 1.000000
  0 -2.061969 -0.985852 -2.306429 -0.820694 -0.526511 -0.221917 0.201018 0.386637 1 0 1.000000
doll01
  0 -1.222065 -1.746961 0.856723 -0.301785 -0.926707 0.223920 0.232097 0.532713 1 0 1.000000
  0 -2.061969 -0.985852 -2.306429 -0.820694 -0.526511 -0.221917 0.201018 0.386637 1 0 1.000000
  0 -0.664378 -2.001277 -2.906677 -0.341493 -0.861971 -0.374685 0.268006 0.365218 1 0 1.000000
doll01
  0 -0.664378 -2.001277 -2.906677 -0.341493 -0.861971 -0.374685 0.268006 0.365218 1 0 1.000000
  0 1.278655 -1.746961 0.856723 0.295254 -0.929250 0.222080 0.357173 0.533702 1 0 1.000000
  0 -1.222065 -1.746961 0.856723 -0.301785 -0.926707 0.223920 0.232097 0.532713 1 0 1.000000
doll01
  0 -0.664378 -2.001277 -2.906677 -0.341493 -0.861971 -0.374685 0.268006 0.365218 1 0 1.000000
  0 0.656960 -1.999037 -2.880761 0.357719 -0.858189 -0.368170 0.321034 0.366894 1 0 1.000000
  0 1.278655 -1.746961 0.856723 0.295254 -0.929250 0.222080 0.357173 0.533702 1 0 1.000000
doll01
  0 2.118559 -0.985852 1.134168 0.903309 -0.425796 0.052251 0.402742 0.542761 1 0 1.000000
  0 1.278655 -1.746961 0.856723 0.295254 -0.929250 0.222080 0.357173 0.533702 1 0 1.000000
  0 0.656960 -1.999037 -2.880761 0.357719 -0.858189 -0.368170 0.321034 0.366894 1 0 1.000000
doll01
  0 2.118559 -0.985852 1.134168 0.903309 -0.425796 0.052251 0.402742 0.542761 1 0 1.000000
  0 0.793628 -0.442615 2.854466 0.486657 -0.733845 0.473958 0.337649 0.616809 1 0 1.000000
  0 1.278655 -1.746961 0.856723 0.295254 -0.929250 0.222080 0.357173 0.533702 1 0 1.000000
doll01
  0 2.118559 -0.985852 1.134168 0.903309 -0.425796 0.052251 0.402742 0.542761 1 0 1.000000
  0 0.793628 0.446345 2.854466 0.717776 0.395424 0.573095 0.499927 0.612452 1 0 1.000000
  0 0.793628 -0.442615 2.854466 0.486657 -0.733845 0.473958 0.337649 0.616809 1 0 1.000000
doll01
  0 2.118559 -0.985852 1.134168 0.903309 -0.425796 0.052251 0.402742 0.542761 1 0 1.000000
  0 2.118559 0.536367 1.134168 0.800019 0.598749 0.038319 0.457366 0.535300 1 0 1.000000
  0 0.793628 0.446345 2.854466 0.717776 0.395424 0.573095 0.499927 0.612452 1 0 1.000000
doll01
  0 0.476999 0.762975 2.854466 0.278748 0.870831 0.404912 0.522670 0.610775 1 0 1.000000
  0 0.793628 0.446345 2.854466 0.717776 0.395424 0.573095 0.499927 0.612452 1 0 1.000000
  0 2.118559 0.536367 1.134168 0.800019 0.598749 0.038319 0.457366 0.535300 1 0 1.000000
doll01
  0 0.476999 0.762975 2.854466 0.278748 0.870831 0.404912 0.522670 0.610775 1 0 1.000000
  0 2.118559 0.536367 1.134168 0.800019 0.598749 0.038319 0.457366 0.535300 1 0 1.000000
  0 0.793628 1.297476 0.601372 0.262079 0.964320 -0.037423 0.512356 0.507125 1 0 1.000000
doll01
  0 2.118559 0.536367 1.134168 0.800019 0.598749 0.038319 0.457366 0.535300 1 0 1.000000
  0 0.719304 1.099225 -0.462609 0.274022 0.960361 0.051170 0.509348 0.460299 1 0 1.000000
  0 0.793628 1.297476 0.601372 0.262079 0.964320 -0.037423 0.512356 0.507125 1 0 1.000000
doll01
  0 -2.061969 -0.985852 1.134168 -0.908939 -0.413428 0.053918 0.187892 0.541107 1 0 1.000000
  0 -1.222065 -1.746961 0.856723 -0.301785 -0.926707 0.223920 0.232097 0.532713 1 0 1.000000
  0 -1.761047 -0.582935 2.358558 -0.611583 -0.464191 0.640697 0.167761 0.594221 1 0 1.000000
doll01
  0 2.380852 0.616911 -2.394922 0.860228 0.477448 -0.179028 0.444417 0.376567 1 0 1.000000
  0 0.889000 0.616911 -4.026657 0.415538 0.195765 -0.888259 0.491074 0.281654 1 0 1.000000
  0 1.156616 1.753442 -2.358848 0.363862 0.930972 0.029928 0.501308 0.372132 1 0 1.000000
doll01
  0 2.380852 0.616911 -2.394922 0.860228 0.477448 -0.179028 0.444417 0.376567 1 0 1.000000
  0 0.806249 -0.958340 -3.970033 0.408726 -0.413558 -0.813580 0.349450 0.312948 1 0 1.000000
  0 0.889000 0.616911 -4.026657 0.415538 0.195765 -0.888259 0.491074 0.281654 1 0 1.000000
doll01
  0 2.380852 0.616911 -2.394922 0.860228 0.477448 -0.179028 0.444417 0.376567 1 0 1.000000
  0 2.118559 -0.819256 -2.449943 0.820859 -0.521734 -0.232345 0.395118 0.381032 1 0 1.000000
  0 0.806249 -0.958340 -3.970033 0.408726 -0.413558 -0.813580 0.349450 0.312948 1 0 1.000000
doll01
  0 1.156616 1.753442 -2.358848 0.363862 0.930972 0.029928 0.501308 0.372132 1 0 1.000000
  0 2.118559 0.536367 1.134168 0.800019 0.598749 0.038319 0.457366 0.535300 1 0 1.000000
  0 2.380852 0.616911 -2.394922 0.860228 0.477448 -0.179028 0.444417 0.376567 1 0 1.000000
doll01
  0 1.156616 1.753442 -2.358848 0.363862 0.930972 0.029928 0.501308 0.372132 1 0 1.000000
  0 0.719304 1.099225 -0.462609 0.274022 0.960361 0.051170 0.509348 0.460299 1 0 1.000000
  0 2.118559 0.536367 1.134168 0.800019 0.598749 0.038319 0.457366 0.535300 1 0 1.000000
doll01
  0 1.156616 1.753442 -2.358848 0.363862 0.930972 0.029928 0.501308 0.372132 1 0 1.000000
  0 -0.662714 1.099225 -0.462609 -0.273644 0.960513 0.050340 0.579565 0.459752 1 0 1.000000
  0 0.719304 1.099225 -0.462609 0.274022 0.960361 0.051170 0.509348 0.460299 1 0 1.000000
doll01
  0 1.156616 1.753442 -2.358848 0.363862 0.930972 0.029928 0.501308 0.372132 1 0 1.000000
  0 -1.068528 1.759441 -2.416832 -0.356455 0.933956 0.025819 0.585155 0.368619 1 0 1.000000
  0 -0.662714 1.099225 -0.462609 -0.273644 0.960513 0.050340 0.579565 0.459752 1 0 1.000000
doll01
  0 0.889000 0.616911 -4.026657 0.415538 0.195765 -0.888259 0.491074 0.281654 1 0 1.000000
  0 -1.068528 1.759441 -2.416832 -0.356455 0.933956 0.025819 0.585155 0.368619 1 0 1.000000
  0 1.156616 1.753442 -2.358848 0.363862 0.930972 0.029928 0.501308 0.372132 1 0 1.000000
doll01
  0 0.889000 0.616911 -4.026657 0.415538 0.195765 -0.888259 0.491074 0.281654 1 0 1.000000
  0 -0.834506 0.616911 -4.026657 -0.408916 0.185197 -0.893583 0.586953 0.281088 1 0 1.000000
  0 -1.068528 1.759441 -2.416832 -0.356455 0.933956 0.025819 0.585155 0.368619 1 0 1.000000
doll01
  0 -0.834506 0.616911 -4.026657 -0.408916 0.185197 -0.893583 0.586953 0.281088 1 0 1.000000
  0 0.889000 0.616911 -4.026657 0.415538 0.195765 -0.888259 0.491074 0.281654 1 0 1.000000
  0 0.806249 -0.958340 -3.970033 0.408726 -0.413558 -0.813580 0.492275 0.227182 1 0 1.000000
doll01
  0 -0.834506 0.616911 -4.026657 -0.408916 0.185197 -0.893583 0.586953 0.281088 1 0 1.000000
  0 0.806249 -0.958340 -3.970033 0.408726 -0.413558 -0.813580 0.492275 0.227182 1 0 1.000000
  0 -0.737038 -0.985852 -4.026728 -0.394357 -0.419445 -0.817648 0.587622 0.224673 1 0 1.000000
doll01
  0 1.694860 1.068916 -3.890612 0.175042 0.898402 -0.402783 0.878087 0.583978 1 0 1.000000
  0 0.646083 1.265008 -2.528491 -0.408937 0.907988 0.091254 0.916069 0.647316 1 0 1.000000
  0 1.902096 0.718926 -2.544583 0.677281 0.427617 0.598694 0.852346 0.636811 1 0 1.000000
doll01
  0 1.902096 0.718926 -2.544583 0.677281 0.427617 0.598694 0.852346 0.636811 1 0 1.000000
  0 0.646083 1.265008 -2.528491 -0.408937 0.907988 0.091254 0.642367 0.647316 1 0 1.000000
  0 0.337323 0.533313 -2.273721 -0.778226 -0.155175 0.608511 0.673524 0.646144 1 0 1.000000
doll01
  0 0.337323 0.533313 -2.273721 -0.778226 -0.155175 0.608511 0.673524 0.646144 1 0 1.000000
  0 0.646083 1.265008 -2.528491 -0.408937 0.907988 0.091254 0.642367 0.647316 1 0 1.000000
  0 1.701244 -0.099716 -5.154285 0.403449 0.826220 -0.393178 0.597035 0.508838 1 0 1.000000
doll01
  0 1.694860 1.068916 -3.890612 0.175042 0.898402 -0.402783 0.604384 0.583978 1 0 1.000000
  0 1.701244 -0.099716 -5.154285 0.403449 0.826220 -0.393178 0.597035 0.508838 1 0 1.000000
  0 0.646083 1.265008 -2.528491 -0.408937 0.907988 0.091254 0.642367 0.647316 1 0 1.000000
doll01
  0 0.683487 -0.963811 -4.433858 -0.998876 0.044376 -0.016661 0.703091 0.526073 1 0 1.000000
  0 0.972551 -0.205977 -6.176498 -0.646353 0.751714 -0.130974 0.634070 0.462624 1 0 1.000000
  0 0.758896 -1.437036 -7.785713 -0.997468 -0.028101 0.065334 0.661086 0.371401 1 0 1.000000
doll01
  0 0.972551 -0.205977 -6.176498 -0.646353 0.751714 -0.130974 0.634070 0.462624 1 0 1.000000
  0 0.916839 -1.074198 -8.489413 -0.735697 0.372361 -0.565771 0.636240 0.346729 1 0 1.000000
  0 0.758896 -1.437036 -7.785713 -0.997468 -0.028101 0.065334 0.661086 0.371401 1 0 1.000000
doll01
  0 1.585286 -1.050391 -8.497573 0.697705 0.305289 -0.648079 0.608365 0.346502 1 0 1.000000
  0 0.916839 -1.074198 -8.489413 -0.735697 0.372361 -0.565771 0.636240 0.346729 1 0 1.000000
  0 0.972551 -0.205977 -6.176498 -0.646353 0.751714 -0.130974 0.634070 0.462624 1 0 1.000000
doll01
  0 1.685743 0.020880 -6.515431 0.388307 0.892467 -0.229609 0.605339 0.451365 1 0 1.000000
  0 1.585286 -1.050391 -8.497573 0.697705 0.305289 -0.648079 0.608365 0.346502 1 0 1.000000
  0 0.972551 -0.205977 -6.176498 -0.646353 0.751714 -0.130974 0.634070 0.462624 1 0 1.000000
doll01
  0 1.685743 0.020880 -6.515431 0.388307 0.892467 -0.229609 0.605339 0.451365 1 0 1.000000
  0 0.972551 -0.205977 -6.176498 -0.646353 0.751714 -0.130974 0.634070 0.462624 1 0 1.000000
  0 1.701244 -0.099716 -5.154285 0.403449 0.826220 -0.393178 0.597035 0.508838 1 0 1.000000
doll01
  0 0.972551 -0.205977 -6.176498 -0.646353 0.751714 -0.130974 0.634070 0.462624 1 0 1.000000
  0 0.683487 -0.963811 -4.433858 -0.998876 0.044376 -0.016661 0.703091 0.526073 1 0 1.000000
  0 1.701244 -0.099716 -5.154285 0.403449 0.826220 -0.393178 0.597035 0.508838 1 0 1.000000
doll01
  0 0.337323 0.533313 -2.273721 -0.778226 -0.155175 0.608511 0.673524 0.646144 1 0 1.000000
  0 1.701244 -0.099716 -5.154285 0.403449 0.826220 -0.393178 0.597035 0.508838 1 0 1.000000
  0 0.683487 -0.963811 -4.433858 -0.998876 0.044376 -0.016661 0.703091 0.526073 1 0 1.000000
doll01
  0 0.683487 -0.963811 -4.433858 -0.998876 0.044376 -0.016661 0.703091 0.526073 1 0 1.000000
  0 1.637104 -1.176498 -3.063759 0.289442 -0.695377 0.657780 0.757848 0.581986 1 0 1.000000
  0 0.337323 0.533313 -2.273721 -0.778226 -0.155175 0.608511 0.673524 0.646144 1 0 1.000000
doll01
  0 1.902096 0.718926 -2.544583 0.677281 0.427617 0.598694 0.852346 0.636811 1 0 1.000000
  0 0.337323 0.533313 -2.273721 -0.778226 -0.155175 0.608511 0.673524 0.646144 1 0 1.000000
  0 1.637104 -1.176498 -3.063759 0.289442 -0.695377 0.657780 0.757848 0.581986 1 0 1.000000
doll01
  0 2.506391 -0.056968 -3.415428 0.979968 -0.003146 0.199132 0.821015 0.585284 1 0 1.000000
  0 1.902096 0.718926 -2.544583 0.677281 0.427617 0.598694 0.852346 0.636811 1 0 1.000000
  0 1.637104 -1.176498 -3.063759 0.289442 -0.695377 0.657780 0.757848 0.581986 1 0 1.000000
doll01
  0 1.902096 0.718926 -2.544583 0.677281 0.427617 0.598694 0.852346 0.636811 1 0 1.000000
  0 2.506391 -0.056968 -3.415428 0.979968 -0.003146 0.199132 0.821015 0.585284 1 0 1.000000
  0 1.694860 1.068916 -3.890612 0.175042 0.898402 -0.402783 0.878087 0.583978 1 0 1.000000
doll01
  0 1.694860 1.068916 -3.890612 0.175042 0.898402 -0.402783 0.878087 0.583978 1 0 1.000000
  0 2.506391 -0.056968 -3.415428 0.979968 -0.003146 0.199132 0.821015 0.585284 1 0 1.000000
  0 2.306868 -1.157098 -4.994364 0.987225 -0.130899 -0.090841 0.799844 0.497605 1 0 1.000000
doll01
  0 1.694860 1.068916 -3.890612 0.175042 0.898402 -0.402783 0.878087 0.583978 1 0 1.000000
  0 2.306868 -1.157098 -4.994364 0.987225 -0.130899 -0.090841 0.799844 0.497605 1 0 1.000000
  0 1.701244 -0.099716 -5.154285 0.403449 0.826220 -0.393178 0.870738 0.508838 1 0 1.000000
doll01
  0 1.685743 0.020880 -6.515431 0.388307 0.892467 -0.229609 0.879042 0.451365 1 0 1.000000
  0 1.701244 -0.099716 -5.154285 0.403449 0.826220 -0.393178 0.870738 0.508838 1 0 1.000000
  0 2.306868 -1.157098 -4.994364 0.987225 -0.130899 -0.090841 0.799844 0.497605 1 0 1.000000
doll01
  0 1.685743 0.020880 -6.515431 0.388307 0.892467 -0.229609 0.879042 0.451365 1 0 1.000000
  0 2.306868 -1.157098 -4.994364 0.987225 -0.130899 -0.090841 0.799844 0.497605 1 0 1.000000
  0 1.585286 -1.050391 -8.497573 0.697705 0.305289 -0.648079 0.882068 0.346502 1 0 1.000000
doll01
  0 1.585286 -1.050391 -8.497573 0.697705 0.305289 -0.648079 0.882068 0.346502 1 0 1.000000
  0 2.306868 -1.157098 -4.994364 0.987225 -0.130899 -0.090841 0.799844 0.497605 1 0 1.000000
  0 1.355019 -1.806014 -7.244602 0.287344 -0.941188 0.177761 0.724840 0.388548 1 0 1.000000
doll01
  0 1.355019 -1.806014 -7.244602 0.287344 -0.941188 0.177761 0.724840 0.388548 1 0 1.000000
  0 1.625060 -2.855318 -8.024703 0.713916 -0.508744 -0.481148 0.757113 0.336478 1 0 1.000000
  0 1.585286 -1.050391 -8.497573 0.697705 0.305289 -0.648079 0.882068 0.346502 1 0 1.000000
doll01
  0 1.625060 -2.855318 -8.024703 0.713916 -0.508744 -0.481148 0.757113 0.336478 1 0 1.000000
  0 1.355019 -1.806014 -7.244602 0.287344 -0.941188 0.177761 0.724840 0.388548 1 0 1.000000
  0 0.758896 -1.437036 -7.785713 -0.997468 -0.028101 0.065334 0.661086 0.371401 1 0 1.000000
doll01
  0 1.625060 -2.855318 -8.024703 0.713916 -0.508744 -0.481148 0.757113 0.336478 1 0 1.000000
  0 0.758896 -1.437036 -7.785713 -0.997468 -0.028101 0.065334 0.661086 0.371401 1 0 1.000000
  0 0.893458 -2.884800 -7.954245 -0.775161 -0.557604 -0.296991 0.725363 0.339359 1 0 1.000000
doll01
  0 0.916839 -1.074198 -8.489413 -0.735697 0.372361 -0.565771 0.636240 0.346729 1 0 1.000000
  0 0.893458 -2.884800 -7.954245 -0.775161 -0.557604 -0.296991 0.725363 0.339359 1 0 1.000000
  0 0.758896 -1.437036 -7.785713 -0.997468 -0.028101 0.065334 0.661086 0.371401 1 0 1.000000
doll01
  0 0.683487 -0.963811 -4.433858 -0.998876 0.044376 -0.016661 0.703091 0.526073 1 0 1.000000
  0 1.595376 -1.960668 -4.634197 0.261712 -0.954173 0.145121 0.754934 0.499987 1 0 1.000000
  0 1.637104 -1.176498 -3.063759 0.289442 -0.695377 0.657780 0.757848 0.581986 1 0 1.000000
doll01
  0 1.595376 -1.960668 -4.634197 0.261712 -0.954173 0.145121 0.754934 0.499987 1 0 1.000000
  0 2.506391 -0.056968 -3.415428 0.979968 -0.003146 0.199132 0.821015 0.585284 1 0 1.000000
  0 1.637104 -1.176498 -3.063759 0.289442 -0.695377 0.657780 0.757848 0.581986 1 0 1.000000
doll01
  0 1.595376 -1.960668 -4.634197 0.261712 -0.954173 0.145121 0.754934 0.499987 1 0 1.000000
  0 2.306868 -1.157098 -4.994364 0.987225 -0.130899 -0.090841 0.799844 0.497605 1 0 1.000000
  0 2.506391 -0.056968 -3.415428 0.979968 -0.003146 0.199132 0.821015 0.585284 1 0 1.000000
doll01
  0 2.306868 -1.157098 -4.994364 0.987225 -0.130899 -0.090841 0.799844 0.497605 1 0 1.000000
  0 1.595376 -1.960668 -4.634197 0.261712 -0.954173 0.145121 0.754934 0.499987 1 0 1.000000
  0 1.355019 -1.806014 -7.244602 0.287344 -0.941188 0.177761 0.724840 0.388548 1 0 1.000000
doll01
  0 1.355019 -1.806014 -7.244602 0.287344 -0.941188 0.177761 0.724840 0.388548 1 0 1.000000
  0 1.595376 -1.960668 -4.634197 0.261712 -0.954173 0.145121 0.754934 0.499987 1 0 1.000000
  0 0.683487 -0.963811 -4.433858 -0.998876 0.044376 -0.016661 0.703091 0.526073 1 0 1.000000
doll01
  0 1.355019 -1.806014 -7.244602 0.287344 -0.941188 0.177761 0.724840 0.388548 1 0 1.000000
  0 0.683487 -0.963811 -4.433858 -0.998876 0.044376 -0.016661 0.703091 0.526073 1 0 1.000000
  0 0.758896 -1.437036 -7.785713 -0.997468 -0.028101 0.065334 0.661086 0.371401 1 0 1.000000
doll01
  0 1.585286 -1.050391 -8.497573 0.697705 0.305289 -0.648079 0.736188 0.340147 1 0 1.000000
  0 0.893458 -2.884800 -7.954245 -0.775161 -0.557604 -0.296991 0.755185 0.347118 1 0 1.000000
  0 0.916839 -1.074198 -8.489413 -0.735697 0.372361 -0.565771 0.736439 0.346883 1 0 1.000000
doll01
  0 1.585286 -1.050391 -8.497573 0.697705 0.305289 -0.648079 0.736188 0.340147 1 0 1.000000
  0 1.625060 -2.855318 -8.024703 0.713916 -0.508744 -0.481148 0.754604 0.339747 1 0 1.000000
  0 0.893458 -2.884800 -7.954245 -0.775161 -0.557604 -0.296991 0.755185 0.347118 1 0 1.000000
doll01
  0 -2.718863 -2.408693 -0.728912 0.794883 0.096817 -0.598989 0.604457 0.106052 1 0 1.000000
  0 -2.800026 -0.911383 -0.363460 0.130690 0.474692 -0.870395 0.639303 0.179433 1 0 1.000000
  0 -2.280560 -0.926985 -0.026752 0.764322 0.032809 -0.644000 0.616715 0.197274 1 0 1.000000
doll01
  0 -2.718863 -2.408693 -0.728912 0.794883 0.096817 -0.598989 0.604457 0.106052 1 0 1.000000
  0 -2.981915 -2.539079 -0.949300 0.429181 0.404811 -0.807423 0.620685 0.089641 1 0 1.000000
  0 -2.800026 -0.911383 -0.363460 0.130690 0.474692 -0.870395 0.639303 0.179433 1 0 1.000000
doll01
  0 -2.800026 -0.911383 -0.363460 0.130690 0.474692 -0.870395 0.639303 0.179433 1 0 1.000000
  0 -2.981915 -2.539079 -0.949300 0.429181 0.404811 -0.807423 0.620685 0.089641 1 0 1.000000
  0 -3.692778 -3.141862 -1.098695 -0.998137 0.055469 -0.025401 0.666620 0.047740 1 0 1.000000
doll01
  0 -2.981915 -2.539079 -0.949300 0.429181 0.404811 -0.807423 0.620685 0.089641 1 0 1.000000
  0 -3.150679 -3.015178 -1.400612 0.345259 0.358528 -0.867326 0.619896 0.053219 1 0 1.000000
  0 -3.692778 -3.141862 -1.098695 -0.998137 0.055469 -0.025401 0.666620 0.047740 1 0 1.000000
doll01
  0 -3.692778 -3.141862 -1.098695 -0.998137 0.055469 -0.025401 0.666620 0.047740 1 0 1.000000
  0 -3.150679 -3.015178 -1.400612 0.345259 0.358528 -0.867326 0.619896 0.053219 1 0 1.000000
  0 -3.287241 -3.794979 -1.632556 0.366029 -0.148422 -0.918691 0.605171 0.010819 1 0 1.000000
doll01
  0 -2.811202 -2.751283 -0.289503 0.548867 -0.501272 0.668932 0.815956 0.102837 1 0 1.000000
  0 -2.718863 -2.408693 -0.728912 0.794883 0.096817 -0.598989 0.876711 0.106052 1 0 1.000000
  0 -2.280560 -0.926985 -0.026752 0.764322 0.032809 -0.644000 0.888969 0.197274 1 0 1.000000
doll01
  0 -2.811202 -2.751283 -0.289503 0.548867 -0.501272 0.668932 0.815956 0.102837 1 0 1.000000
  0 -2.280560 -0.926985 -0.026752 0.764322 0.032809 -0.644000 0.888969 0.197274 1 0 1.000000
  0 -0.850729 0.606254 1.458601 0.583668 0.693732 -0.421980 0.850300 0.330164 1 0 1.000000
doll01
  0 -2.811202 -2.751283 -0.289503 0.548867 -0.501272 0.668932 0.815956 0.102837 1 0 1.000000
  0 -0.850729 0.606254 1.458601 0.583668 0.693732 -0.421980 0.850300 0.330164 1 0 1.000000
  0 -2.215353 -0.868252 1.974737 -0.128382 -0.495265 0.859203 0.763600 0.259827 1 0 1.000000
doll01
  0 -2.215353 -0.868252 1.974737 -0.128382 -0.495265 0.859203 0.763600 0.259827 1 0 1.000000
  0 -0.850729 0.606254 1.458601 0.583668 0.693732 -0.421980 0.850300 0.330164 1 0 1.000000
  0 -1.777625 0.628172 1.758570 -0.182067 0.611853 0.769732 0.760648 0.324613 1 0 1.000000
doll01
  0 -2.215353 -0.868252 1.974737 -0.128382 -0.495265 0.859203 0.763600 0.259827 1 0 1.000000
  0 -1.777625 0.628172 1.758570 -0.182067 0.611853 0.769732 0.760648 0.324613 1 0 1.000000
  0 -2.869695 -0.008708 1.454042 -0.769016 0.574902 0.279466 0.697716 0.270383 1 0 1.000000
doll01
  0 -2.869695 -0.008708 1.454042 -0.769016 0.574902 0.279466 0.697716 0.270383 1 0 1.000000
  0 -1.777625 0.628172 1.758570 -0.182067 0.611853 0.769732 0.760648 0.324613 1 0 1.000000
  0 -0.850729 0.606254 1.458601 0.583668 0.693732 -0.421980 0.596999 0.330164 1 0 1.000000
doll01
  0 -2.869695 -0.008708 1.454042 -0.769016 0.574902 0.279466 0.697716 0.270383 1 0 1.000000
  0 -0.850729 0.606254 1.458601 0.583668 0.693732 -0.421980 0.596999 0.330164 1 0 1.000000
  0 -2.042275 0.099440 0.592773 0.064462 0.739481 -0.670084 0.625090 0.263308 1 0 1.000000
doll01
  0 -2.869695 -0.008708 1.454042 -0.769016 0.574902 0.279466 0.697716 0.270383 1 0 1.000000
  0 -2.042275 0.099440 0.592773 0.064462 0.739481 -0.670084 0.625090 0.263308 1 0 1.000000
  0 -2.800026 -0.911383 -0.363460 0.130690 0.474692 -0.870395 0.639303 0.179433 1 0 1.000000
doll01
  0 -2.869695 -0.008708 1.454042 -0.769016 0.574902 0.279466 0.697716 0.270383 1 0 1.000000
  0 -2.800026 -0.911383 -0.363460 0.130690 0.474692 -0.870395 0.639303 0.179433 1 0 1.000000
  0 -3.516665 -1.191046 0.117675 -0.981975 0.186855 0.028459 0.678714 0.169814 1 0 1.000000
doll01
  0 -2.800026 -0.911383 -0.363460 0.130690 0.474692 -0.870395 0.639303 0.179433 1 0 1.000000
  0 -3.692778 -3.141862 -1.098695 -0.998137 0.055469 -0.025401 0.666620 0.047740 1 0 1.000000
  0 -3.516665 -1.191046 0.117675 -0.981975 0.186855 0.028459 0.678714 0.169814 1 0 1.000000
doll01
  0 -3.516665 -1.191046 0.117675 -0.981975 0.186855 0.028459 0.678714 0.169814 1 0 1.000000
  0 -3.692778 -3.141862 -1.098695 -0.998137 0.055469 -0.025401 0.666620 0.047740 1 0 1.000000
  0 -2.811202 -2.751283 -0.289503 0.548867 -0.501272 0.668932 0.815956 0.102837 1 0 1.000000
doll01
  0 -3.516665 -1.191046 0.117675 -0.981975 0.186855 0.028459 0.678714 0.169814 1 0 1.000000
  0 -2.811202 -2.751283 -0.289503 0.548867 -0.501272 0.668932 0.815956 0.102837 1 0 1.000000
  0 -2.215353 -0.868252 1.974737 -0.128382 -0.495265 0.859203 0.763600 0.259827 1 0 1.000000
doll01
  0 -3.516665 -1.191046 0.117675 -0.981975 0.186855 0.028459 0.678714 0.169814 1 0 1.000000
  0 -2.215353 -0.868252 1.974737 -0.128382 -0.495265 0.859203 0.763600 0.259827 1 0 1.000000
  0 -2.869695 -0.008708 1.454042 -0.769016 0.574902 0.279466 0.697716 0.270383 1 0 1.000000
doll01
  0 -0.850729 0.606254 1.458601 0.583668 0.693732 -0.421980 0.850300 0.330164 1 0 1.000000
  0 -2.800026 -0.911383 -0.363460 0.130690 0.474692 -0.870395 0.911557 0.179433 1 0 1.000000
  0 -2.042275 0.099440 0.592773 0.064462 0.739481 -0.670084 0.897344 0.263308 1 0 1.000000
doll01
  0 -0.850729 0.606254 1.458601 0.583668 0.693732 -0.421980 0.850300 0.330164 1 0 1.000000
  0 -2.280560 -0.926985 -0.026752 0.764322 0.032809 -0.644000 0.888969 0.197274 1 0 1.000000
  0 -2.800026 -0.911383 -0.363460 0.130690 0.474692 -0.870395 0.911557 0.179433 1 0 1.000000
doll01
  0 -3.692778 -3.141862 -1.098695 -0.998137 0.055469 -0.025401 0.666620 0.047740 1 0 1.000000
  0 -3.287241 -3.794979 -1.632556 0.366029 -0.148422 -0.918691 0.605171 0.010819 1 0 1.000000
  0 -3.559198 -3.758935 -1.541831 -0.770090 -0.247269 -0.588065 0.632299 0.010536 1 0 1.000000
doll01
  0 -3.559198 -3.758935 -1.541831 -0.770090 -0.247269 -0.588065 0.632299 0.010536 1 0 1.000000
  0 -3.299326 -4.020405 -1.302923 -0.511516 -0.851018 0.118829 0.699810 0.010702 1 0 1.000000
  0 -3.692778 -3.141862 -1.098695 -0.998137 0.055469 -0.025401 0.666620 0.047740 1 0 1.000000
doll01
  0 -3.299326 -4.020405 -1.302923 -0.511516 -0.851018 0.118829 0.699810 0.010702 1 0 1.000000
  0 -2.811202 -2.751283 -0.289503 0.548867 -0.501272 0.668932 0.815956 0.102837 1 0 1.000000
  0 -3.692778 -3.141862 -1.098695 -0.998137 0.055469 -0.025401 0.666620 0.047740 1 0 1.000000
doll01
  0 -3.299326 -4.020405 -1.302923 -0.511516 -0.851018 0.118829 0.699810 0.010702 1 0 1.000000
  0 -3.061080 -3.909528 -0.414137 0.899742 -0.427560 0.087504 0.787093 0.055309 1 0 1.000000
  0 -2.811202 -2.751283 -0.289503 0.548867 -0.501272 0.668932 0.815956 0.102837 1 0 1.000000
doll01
  0 -3.061080 -3.909528 -0.414137 0.899742 -0.427560 0.087504 0.787093 0.055309 1 0 1.000000
  0 -2.718863 -2.408693 -0.728912 0.794883 0.096817 -0.598989 0.876711 0.106052 1 0 1.000000
  0 -2.811202 -2.751283 -0.289503 0.548867 -0.501272 0.668932 0.815956 0.102837 1 0 1.000000
doll01
  0 -3.061080 -3.909528 -0.414137 0.899742 -0.427560 0.087504 0.787093 0.055309 1 0 1.000000
  0 -2.981915 -2.539079 -0.949300 0.429181 0.404811 -0.807423 0.892938 0.089641 1 0 1.000000
  0 -2.718863 -2.408693 -0.728912 0.794883 0.096817 -0.598989 0.876711 0.106052 1 0 1.000000
doll01
  0 -3.061080 -3.909528 -0.414137 0.899742 -0.427560 0.087504 0.787093 0.055309 1 0 1.000000
  0 -3.150679 -3.015178 -1.400612 0.345259 0.358528 -0.867326 0.892150 0.053219 1 0 1.000000
  0 -2.981915 -2.539079 -0.949300 0.429181 0.404811 -0.807423 0.892938 0.089641 1 0 1.000000
doll01
  0 -3.061080 -3.909528 -0.414137 0.899742 -0.427560 0.087504 0.787093 0.055309 1 0 1.000000
  0 -3.287241 -3.794979 -1.632556 0.366029 -0.148422 -0.918691 0.877425 0.010819 1 0 1.000000
  0 -3.150679 -3.015178 -1.400612 0.345259 0.358528 -0.867326 0.892150 0.053219 1 0 1.000000
doll01
  0 -3.061080 -3.909528 -0.414137 0.899742 -0.427560 0.087504 0.787093 0.055309 1 0 1.000000
  0 -3.299326 -4.020405 -1.302923 -0.511516 -0.851018 0.118829 0.699810 0.010702 1 0 1.000000
  0 -3.287241 -3.794979 -1.632556 0.366029 -0.148422 -0.918691 0.877425 0.010819 1 0 1.000000
doll01
  0 -3.559198 -3.758935 -1.541831 -0.770090 -0.247269 -0.588065 0.904553 0.010536 1 0 1.000000
  0 -3.287241 -3.794979 -1.632556 0.366029 -0.148422 -0.918691 0.877425 0.010819 1 0 1.000000
  0 -3.299326 -4.020405 -1.302923 -0.511516 -0.851018 0.118829 0.699810 0.010702 1 0 1.000000
doll01
  0 0.665068 0.318495 3.794224 0.910234 0.375044 0.175544 0.072605 0.147319 1 0 1.000000
  0 0.476999 0.762975 2.854466 0.278748 0.870831 0.404912 0.009548 0.130569 1 0 1.000000
  0 0.348439 0.635124 3.794224 0.375052 0.910307 0.175151 0.067710 0.120105 1 0 1.000000
doll01
  0 0.665068 0.318495 3.794224 0.910234 0.375044 0.175544 0.072605 0.147319 1 0 1.000000
  0 0.793628 0.446345 2.854466 0.717776 0.395424 0.573095 0.014444 0.156035 1 0 1.000000
  0 0.476999 0.762975 2.854466 0.278748 0.870831 0.404912 0.009548 0.130569 1 0 1.000000
doll01
  0 0.665068 0.318495 3.794224 0.910234 0.375044 0.175544 0.072605 0.147319 1 0 1.000000
  0 0.793628 -0.442615 2.854466 0.486657 -0.733845 0.473958 0.028189 0.198597 1 0 1.000000
  0 0.793628 0.446345 2.854466 0.717776 0.395424 0.573095 0.014444 0.156035 1 0 1.000000
doll01
  0 0.665068 0.318495 3.794224 0.910234 0.375044 0.175544 0.072605 0.147319 1 0 1.000000
  0 0.665068 -0.314764 3.794224 0.910234 -0.375044 0.175544 0.082397 0.186347 1 0 1.000000
  0 0.793628 -0.442615 2.854466 0.486657 -0.733845 0.473958 0.028189 0.198597 1 0 1.000000
doll01
  0 0.665068 -0.314764 3.794224 0.910234 -0.375044 0.175544 0.082397 0.186347 1 0 1.000000
  0 0.348439 -0.631394 3.794224 0.382968 -0.923752 -0.004141 0.087292 0.214946 1 0 1.000000
  0 0.793628 -0.442615 2.854466 0.486657 -0.733845 0.473958 0.028189 0.198597 1 0 1.000000
doll01
  0 0.348439 -0.631394 3.794224 0.382968 -0.923752 -0.004141 0.087292 0.214946 1 0 1.000000
  0 -0.737038 -0.442615 2.854466 -0.486256 -0.736082 0.470891 0.028189 0.274790 1 0 1.000000
  0 0.793628 -0.442615 2.854466 0.486657 -0.733845 0.473958 0.028189 0.198597 1 0 1.000000
doll01
  0 0.348439 -0.631394 3.794224 0.382968 -0.923752 -0.004141 0.087292 0.214946 1 0 1.000000
  0 -0.291848 -0.631394 3.794224 -0.382968 -0.923752 -0.004141 0.087292 0.258441 1 0 1.000000
  0 -0.737038 -0.442615 2.854466 -0.486256 -0.736082 0.470891 0.028189 0.274790 1 0 1.000000
doll01
  0 -0.291848 -0.631394 3.794224 -0.382968 -0.923752 -0.004141 0.087292 0.258441 1 0 1.000000
  0 -0.608478 -0.314764 3.794224 -0.910234 -0.375044 0.175544 0.082397 0.287040 1 0 1.000000
  0 -0.737038 -0.442615 2.854466 -0.486256 -0.736082 0.470891 0.028189 0.274790 1 0 1.000000
doll01
  0 -0.608478 -0.314764 3.794224 -0.910234 -0.375044 0.175544 0.082397 0.287040 1 0 1.000000
  0 -0.737038 0.446345 2.854466 -0.713151 0.387133 0.584417 0.014444 0.317352 1 0 1.000000
  0 -0.737038 -0.442615 2.854466 -0.486256 -0.736082 0.470891 0.028189 0.274790 1 0 1.000000
doll01
  0 -0.608478 -0.314764 3.794224 -0.910234 -0.375044 0.175544 0.082397 0.287040 1 0 1.000000
  0 -0.608478 0.318495 3.794224 -0.910234 0.375044 0.175544 0.072605 0.326067 1 0 1.000000
  0 -0.737038 0.446345 2.854466 -0.713151 0.387133 0.584417 0.014444 0.317352 1 0 1.000000
doll01
  0 -0.737038 0.446345 2.854466 -0.713151 0.387133 0.584417 0.014444 0.317352 1 0 1.000000
  0 -0.608478 0.318495 3.794224 -0.910234 0.375044 0.175544 0.072605 0.326067 1 0 1.000000
  0 -0.291848 0.635124 3.794224 -0.375052 0.910307 0.175151 0.067710 0.353282 1 0 1.000000
doll01
  0 -0.737038 0.446345 2.854466 -0.713151 0.387133 0.584417 0.014444 0.317352 1 0 1.000000
  0 -0.291848 0.635124 3.794224 -0.375052 0.910307 0.175151 0.067710 0.353282 1 0 1.000000
  0 -0.420408 0.762975 2.854466 -0.269656 0.872371 0.407743 0.009548 0.342817 1 0 1.000000
doll01
  0 -0.291848 0.635124 3.794224 -0.375052 0.910307 0.175151 0.067710 0.353282 1 0 1.000000
  0 0.476999 0.762975 2.854466 0.278748 0.870831 0.404912 0.009548 0.404178 1 0 1.000000
  0 -0.420408 0.762975 2.854466 -0.269656 0.872371 0.407743 0.009548 0.342817 1 0 1.000000
doll01
  0 -0.291848 0.635124 3.794224 -0.375052 0.910307 0.175151 0.067710 0.353282 1 0 1.000000
  0 0.348439 0.635124 3.794224 0.375052 0.910307 0.175151 0.067710 0.393713 1 0 1.000000
  0 0.476999 0.762975 2.854466 0.278748 0.870831 0.404912 0.009548 0.404178 1 0 1.000000
doll01
  0 -1.590588 -2.057152 2.968709 -0.670209 -0.192132 -0.716872 0.470361 0.021375 1 0 1.000000
  0 1.610039 -0.909970 2.911349 0.620186 0.202640 -0.757830 0.534636 0.208576 1 0 1.000000
  0 1.590588 -2.057152 2.968709 0.673342 -0.187419 -0.715181 0.470361 0.207438 1 0 1.000000
doll01
  0 -1.590588 -2.057152 2.968709 -0.670209 -0.192132 -0.716872 0.470361 0.021375 1 0 1.000000
  0 -1.610039 -0.909970 2.911349 -0.620186 0.202640 -0.757830 0.534636 0.020237 1 0 1.000000
  0 1.610039 -0.909970 2.911349 0.620186 0.202640 -0.757830 0.534636 0.208576 1 0 1.000000
doll01
  0 1.610039 -0.909970 2.911349 0.620186 0.202640 -0.757830 0.534636 0.208576 1 0 1.000000
  0 -1.610039 -0.909970 2.911349 -0.620186 0.202640 -0.757830 0.534636 0.020237 1 0 1.000000
  0 -1.590588 -0.043650 3.442175 -0.499431 0.441306 -0.745531 0.591328 0.021375 1 0 1.000000
doll01
  0 1.610039 -0.909970 2.911349 0.620186 0.202640 -0.757830 0.534636 0.208576 1 0 1.000000
  0 -1.590588 -0.043650 3.442175 -0.499431 0.441306 -0.745531 0.591328 0.021375 1 0 1.000000
  0 0.000000 0.013709 2.868583 0.000000 0.501734 -0.865022 0.586438 0.114407 1 0 1.000000
doll01
  0 1.610039 -0.909970 2.911349 0.620186 0.202640 -0.757830 0.534636 0.208576 1 0 1.000000
  0 0.000000 0.013709 2.868583 0.000000 0.501734 -0.865022 0.586438 0.114407 1 0 1.000000
  0 1.590588 -0.043650 3.442175 0.499431 0.441306 -0.745531 0.591328 0.207438 1 0 1.000000
end
