// Created by Crowbar 0.74
version 1
nodes
  0 "polymsh1" -1
end
skeleton
  time 0
    0 0.000000 0.000000 0.000000 1.570796 0.000000 0.000000
end
triangles
  phy
    0 -2.326358 0.616911 -2.394922 -0.641010 0.042101 -0.766377 0 0
    0 -2.869695 -0.008708 1.454042 -0.568690 -0.019643 -0.822318 0 0
    0 -1.807775 1.097600 5.397851 -0.746947 -0.073635 -0.660793 0 0
  phy
    0 -2.869695 -0.008708 1.454042 -0.568690 -0.019643 -0.822318 0 0
    0 -2.326358 0.616911 -2.394922 -0.641010 0.042101 -0.766377 0 0
    0 -3.516665 -1.191046 0.117675 -0.198133 -0.083769 -0.976589 0 0
  phy
    0 -1.807775 1.097600 5.397851 -0.746947 -0.073635 -0.660793 0 0
    0 -2.869695 -0.008708 1.454042 -0.568690 -0.019643 -0.822318 0 0
    0 -3.516665 -1.191046 0.117675 -0.198133 -0.083769 -0.976589 0 0
  phy
    0 -2.506391 -0.233562 -3.387273 -0.232531 0.241051 -0.942244 0 0
    0 -2.326358 0.616911 -2.394922 -0.641010 0.042101 -0.766377 0 0
    0 -2.127894 0.432880 -3.968512 -0.471770 0.321597 -0.820980 0 0
  phy
    0 -2.326358 0.616911 -2.394922 -0.641010 0.042101 -0.766377 0 0
    0 -2.506391 -0.233562 -3.387273 -0.232531 0.241051 -0.942244 0 0
    0 -3.516665 -1.191046 0.117675 -0.198133 -0.083769 -0.976589 0 0
  phy
    0 -3.516665 -1.191046 0.117675 -0.198133 -0.083769 -0.976589 0 0
    0 -2.506391 -0.233562 -3.387273 -0.232531 0.241051 -0.942244 0 0
    0 -3.692778 -3.141862 -1.098695 -0.002160 0.029576 -0.999560 0 0
  phy
    0 -2.157653 -2.149584 -5.771936 -0.174171 0.306089 -0.935935 0 0
    0 -2.506391 -0.233562 -3.387273 -0.232531 0.241051 -0.942244 0 0
    0 -2.127894 0.432880 -3.968512 -0.471770 0.321597 -0.820980 0 0
  phy
    0 -2.506391 -0.233562 -3.387273 -0.232531 0.241051 -0.942244 0 0
    0 -2.157653 -2.149584 -5.771936 -0.174171 0.306089 -0.935935 0 0
    0 -3.692778 -3.141862 -1.098695 -0.002160 0.029576 -0.999560 0 0
  phy
    0 -1.685743 -1.290928 -6.302415 -0.506640 0.555175 -0.659619 0 0
    0 -1.694860 0.641688 -4.240123 -0.698984 0.526983 -0.483435 0 0
    0 0.916839 -1.074198 -8.489413 -0.602353 0.719174 -0.346353 0 0
  phy
    0 -1.613173 -2.904846 -7.648337 0.073475 0.653784 -0.753105 0 0
    0 -1.685743 -1.290928 -6.302415 -0.506640 0.555175 -0.659619 0 0
    0 0.916839 -1.074198 -8.489413 -0.602353 0.719174 -0.346353 0 0
  phy
    0 -1.685743 -1.290928 -6.302415 -0.506640 0.555175 -0.659619 0 0
    0 -2.157653 -2.149584 -5.771936 -0.174171 0.306089 -0.935935 0 0
    0 -2.127894 0.432880 -3.968512 -0.471770 0.321597 -0.820980 0 0
  phy
    0 -2.157653 -2.149584 -5.771936 -0.174171 0.306089 -0.935935 0 0
    0 -1.685743 -1.290928 -6.302415 -0.506640 0.555175 -0.659619 0 0
    0 -1.613173 -2.904846 -7.648337 0.073475 0.653784 -0.753105 0 0
  phy
    0 -1.694860 0.641688 -4.240123 -0.698984 0.526983 -0.483435 0 0
    0 -1.685743 -1.290928 -6.302415 -0.506640 0.555175 -0.659619 0 0
    0 -2.127894 0.432880 -3.968512 -0.471770 0.321597 -0.820980 0 0
  phy
    0 0.004071 0.226489 7.707829 -0.415798 -0.908665 0.037945 0 0
    0 -1.237278 0.233084 7.420708 -0.246868 -0.872019 -0.422658 0 0
    0 0.000000 -1.125505 7.741048 0.277574 -0.960113 -0.033702 0 0
  phy
    0 -1.237278 0.233084 7.420708 -0.246868 -0.872019 -0.422658 0 0
    0 -1.266741 -1.098563 7.447543 0.173537 -0.784369 -0.595525 0 0
    0 0.000000 -1.125505 7.741048 0.277574 -0.960113 -0.033702 0 0
  phy
    0 -1.266741 -1.098563 7.447543 0.173537 -0.784369 -0.595525 0 0
    0 -1.237278 0.233084 7.420708 -0.246868 -0.872019 -0.422658 0 0
    0 -1.884774 0.210271 6.600851 -0.203941 -0.293491 -0.933955 0 0
  phy
    0 -1.237278 0.233084 7.420708 -0.246868 -0.872019 -0.422658 0 0
    0 0.004071 0.226489 7.707829 -0.415798 -0.908665 0.037945 0 0
    0 -1.167870 1.097600 6.650203 -0.805745 -0.479190 -0.348069 0 0
  phy
    0 -1.237278 0.233084 7.420708 -0.246868 -0.872019 -0.422658 0 0
    0 -1.167870 1.097600 6.650203 -0.805745 -0.479190 -0.348069 0 0
    0 -1.884774 0.210271 6.600851 -0.203941 -0.293491 -0.933955 0 0
  phy
    0 0.000000 1.154959 6.764437 -0.835394 -0.549652 0.000000 0 0
    0 -1.167870 1.097600 6.650203 -0.805745 -0.479190 -0.348069 0 0
    0 0.004071 0.226489 7.707829 -0.415798 -0.908665 0.037945 0 0
  phy
    0 0.000000 1.154959 6.764437 -0.835394 -0.549652 0.000000 0 0
    0 0.004071 0.226489 7.707829 -0.415798 -0.908665 0.037945 0 0
    0 1.167870 1.097600 6.650203 -0.805860 -0.478771 0.348379 0 0
  phy
    0 -1.167870 1.097600 6.650203 -0.805745 -0.479190 -0.348069 0 0
    0 0.000000 1.154959 6.764437 -0.835394 -0.549652 0.000000 0 0
    0 0.000000 1.671192 5.512085 -0.997571 -0.069654 0.000159 0 0
  phy
    0 0.000000 1.671192 5.512085 -0.997571 -0.069654 0.000159 0 0
    0 0.000000 1.154959 6.764437 -0.835394 -0.549652 0.000000 0 0
    0 1.167870 1.097600 6.650203 -0.805860 -0.478771 0.348379 0 0
  phy
    0 -0.933934 1.393232 -3.597497 -0.882814 0.451492 -0.129596 0 0
    0 1.685743 0.020880 -6.515431 -0.892128 0.437596 0.112328 0 0
    0 0.916839 -1.074198 -8.489413 -0.602353 0.719174 -0.346353 0 0
  phy
    0 0.916839 -1.074198 -8.489413 -0.602353 0.719174 -0.346353 0 0
    0 1.685743 0.020880 -6.515431 -0.892128 0.437596 0.112328 0 0
    0 1.602097 -1.018334 -8.439340 -0.286429 0.419681 0.861293 0 0
  phy
    0 1.685743 0.020880 -6.515431 -0.892128 0.437596 0.112328 0 0
    0 1.694860 1.068916 -3.890612 -0.859593 0.306227 0.409054 0 0
    0 2.112085 0.794999 -3.750217 -0.503631 0.202417 0.839871 0 0
  phy
    0 2.112085 0.794999 -3.750217 -0.503631 0.202417 0.839871 0 0
    0 1.602097 -1.018334 -8.439340 -0.286429 0.419681 0.861293 0 0
    0 1.685743 0.020880 -6.515431 -0.892128 0.437596 0.112328 0 0
  phy
    0 1.005537 1.395523 -3.542633 -0.930700 0.360780 0.060293 0 0
    0 1.685743 0.020880 -6.515431 -0.892128 0.437596 0.112328 0 0
    0 -0.933934 1.393232 -3.597497 -0.882814 0.451492 -0.129596 0 0
  phy
    0 1.694860 1.068916 -3.890612 -0.859593 0.306227 0.409054 0 0
    0 1.685743 0.020880 -6.515431 -0.892128 0.437596 0.112328 0 0
    0 1.005537 1.395523 -3.542633 -0.930700 0.360780 0.060293 0 0
  phy
    0 1.884774 0.210271 6.600851 -0.128730 -0.142897 0.981330 0 0
    0 1.167870 1.097600 6.650203 -0.805860 -0.478771 0.348379 0 0
    0 1.237278 0.233084 7.420708 -0.317955 -0.815874 0.482964 0 0
  phy
    0 1.237278 0.233084 7.420708 -0.317955 -0.815874 0.482964 0 0
    0 1.167870 1.097600 6.650203 -0.805860 -0.478771 0.348379 0 0
    0 0.004071 0.226489 7.707829 -0.415798 -0.908665 0.037945 0 0
  phy
    0 1.237278 0.233084 7.420708 -0.317955 -0.815874 0.482964 0 0
    0 1.266741 -1.098563 7.447543 0.141044 -0.830522 0.538832 0 0
    0 1.884774 0.210271 6.600851 -0.128730 -0.142897 0.981330 0 0
  phy
    0 1.237278 0.233084 7.420708 -0.317955 -0.815874 0.482964 0 0
    0 0.004071 0.226489 7.707829 -0.415798 -0.908665 0.037945 0 0
    0 1.266741 -1.098563 7.447543 0.141044 -0.830522 0.538832 0 0
  phy
    0 1.104686 -2.523564 6.003506 0.880602 -0.212822 0.423375 0 0
    0 1.045880 -3.133477 3.573167 0.912908 -0.092666 0.397507 0 0
    0 1.815627 -2.118346 6.211606 0.498362 -0.223056 0.837784 0 0
  phy
    0 1.815627 -2.118346 6.211606 0.498362 -0.223056 0.837784 0 0
    0 1.201671 -2.262344 6.867767 0.755575 -0.598531 0.266208 0 0
    0 1.104686 -2.523564 6.003506 0.880602 -0.212822 0.423375 0 0
  phy
    0 1.104686 -2.523564 6.003506 0.880602 -0.212822 0.423375 0 0
    0 -0.010182 -3.471899 4.243111 0.983846 -0.174961 0.037884 0 0
    0 1.045880 -3.133477 3.573167 0.912908 -0.092666 0.397507 0 0
  phy
    0 1.104686 -2.523564 6.003506 0.880602 -0.212822 0.423375 0 0
    0 1.201671 -2.262344 6.867767 0.755575 -0.598531 0.266208 0 0
    0 -0.010182 -3.471899 4.243111 0.983846 -0.174961 0.037884 0 0
  phy
    0 -2.127894 0.432880 -3.968512 -0.471770 0.321597 -0.820980 0 0
    0 -2.326358 0.616911 -2.394922 -0.641010 0.042101 -0.766377 0 0
    0 -1.068528 1.759441 -2.416832 -0.949813 0.032928 -0.311079 0 0
  phy
    0 -2.326358 0.616911 -2.394922 -0.641010 0.042101 -0.766377 0 0
    0 -1.807775 1.097600 5.397851 -0.746947 -0.073635 -0.660793 0 0
    0 -1.068528 1.759441 -2.416832 -0.949813 0.032928 -0.311079 0 0
  phy
    0 -2.157653 -2.149584 -5.771936 -0.174171 0.306089 -0.935935 0 0
    0 -1.613173 -2.904846 -7.648337 0.073475 0.653784 -0.753105 0 0
    0 -3.692778 -3.141862 -1.098695 -0.002160 0.029576 -0.999560 0 0
  phy
    0 -1.694860 0.641688 -4.240123 -0.698984 0.526983 -0.483435 0 0
    0 -2.127894 0.432880 -3.968512 -0.471770 0.321597 -0.820980 0 0
    0 -1.068528 1.759441 -2.416832 -0.949813 0.032928 -0.311079 0 0
  phy
    0 -0.933934 1.393232 -3.597497 -0.882814 0.451492 -0.129596 0 0
    0 -1.694860 0.641688 -4.240123 -0.698984 0.526983 -0.483435 0 0
    0 -1.068528 1.759441 -2.416832 -0.949813 0.032928 -0.311079 0 0
  phy
    0 -1.694860 0.641688 -4.240123 -0.698984 0.526983 -0.483435 0 0
    0 -0.933934 1.393232 -3.597497 -0.882814 0.451492 -0.129596 0 0
    0 0.916839 -1.074198 -8.489413 -0.602353 0.719174 -0.346353 0 0
  phy
    0 -1.167870 1.097600 6.650203 -0.805745 -0.479190 -0.348069 0 0
    0 -1.807775 1.097600 5.397851 -0.746947 -0.073635 -0.660793 0 0
    0 -1.884774 0.210271 6.600851 -0.203941 -0.293491 -0.933955 0 0
  phy
    0 -1.807775 1.097600 5.397851 -0.746947 -0.073635 -0.660793 0 0
    0 -1.167870 1.097600 6.650203 -0.805745 -0.479190 -0.348069 0 0
    0 0.000000 1.671192 5.512085 -0.997571 -0.069654 0.000159 0 0
  phy
    0 1.266741 -1.098563 7.447543 0.141044 -0.830522 0.538832 0 0
    0 0.004071 0.226489 7.707829 -0.415798 -0.908665 0.037945 0 0
    0 0.000000 -1.125505 7.741048 0.277574 -0.960113 -0.033702 0 0
  phy
    0 -1.266741 -1.098563 7.447543 0.173537 -0.784369 -0.595525 0 0
    0 -1.201671 -2.262344 6.867767 0.856211 -0.406624 -0.318685 0 0
    0 0.000000 -1.125505 7.741048 0.277574 -0.960113 -0.033702 0 0
  phy
    0 -1.201671 -2.262344 6.867767 0.856211 -0.406624 -0.318685 0 0
    0 0.000000 -2.317151 7.006042 0.830465 -0.557071 0.000000 0 0
    0 0.000000 -1.125505 7.741048 0.277574 -0.960113 -0.033702 0 0
  phy
    0 0.000000 -1.125505 7.741048 0.277574 -0.960113 -0.033702 0 0
    0 1.201671 -2.262344 6.867767 0.755575 -0.598531 0.266208 0 0
    0 1.266741 -1.098563 7.447543 0.141044 -0.830522 0.538832 0 0
  phy
    0 0.000000 -1.125505 7.741048 0.277574 -0.960113 -0.033702 0 0
    0 0.000000 -2.317151 7.006042 0.830465 -0.557071 0.000000 0 0
    0 1.201671 -2.262344 6.867767 0.755575 -0.598531 0.266208 0 0
  phy
    0 -1.815627 -2.118346 6.211606 0.411961 -0.328375 -0.849975 0 0
    0 -1.936492 -1.017738 6.567028 0.075795 -0.278113 -0.957553 0 0
    0 -3.692778 -3.141862 -1.098695 -0.002160 0.029576 -0.999560 0 0
  phy
    0 -1.936492 -1.017738 6.567028 0.075795 -0.278113 -0.957553 0 0
    0 -3.516665 -1.191046 0.117675 -0.198133 -0.083769 -0.976589 0 0
    0 -3.692778 -3.141862 -1.098695 -0.002160 0.029576 -0.999560 0 0
  phy
    0 -3.516665 -1.191046 0.117675 -0.198133 -0.083769 -0.976589 0 0
    0 -1.936492 -1.017738 6.567028 0.075795 -0.278113 -0.957553 0 0
    0 -1.884774 0.210271 6.600851 -0.203941 -0.293491 -0.933955 0 0
  phy
    0 -1.266741 -1.098563 7.447543 0.173537 -0.784369 -0.595525 0 0
    0 -1.936492 -1.017738 6.567028 0.075795 -0.278113 -0.957553 0 0
    0 -1.815627 -2.118346 6.211606 0.411961 -0.328375 -0.849975 0 0
  phy
    0 -1.936492 -1.017738 6.567028 0.075795 -0.278113 -0.957553 0 0
    0 -1.266741 -1.098563 7.447543 0.173537 -0.784369 -0.595525 0 0
    0 -1.884774 0.210271 6.600851 -0.203941 -0.293491 -0.933955 0 0
  phy
    0 -1.625060 -4.519372 -6.659582 0.656791 0.483489 -0.578674 0 0
    0 -3.559197 -3.758935 -1.541831 0.353448 0.092410 -0.930878 0 0
    0 -1.613173 -2.904846 -7.648337 0.073475 0.653784 -0.753105 0 0
  phy
    0 -1.613173 -2.904846 -7.648337 0.073475 0.653784 -0.753105 0 0
    0 -3.559197 -3.758935 -1.541831 0.353448 0.092410 -0.930878 0 0
    0 -3.692778 -3.141862 -1.098695 -0.002160 0.029576 -0.999560 0 0
  phy
    0 -1.815627 -2.118346 6.211606 0.411961 -0.328375 -0.849975 0 0
    0 -3.559197 -3.758935 -1.541831 0.353448 0.092410 -0.930878 0 0
    0 -3.095285 -3.990831 -0.559737 0.861059 -0.288989 -0.418405 0 0
  phy
    0 -3.559197 -3.758935 -1.541831 0.353448 0.092410 -0.930878 0 0
    0 -1.815627 -2.118346 6.211606 0.411961 -0.328375 -0.849975 0 0
    0 -3.692778 -3.141862 -1.098695 -0.002160 0.029576 -0.999560 0 0
  phy
    0 -1.625060 -4.519372 -6.659582 0.656791 0.483489 -0.578674 0 0
    0 -3.069386 -4.140547 -1.360257 0.996083 -0.080380 -0.036849 0 0
    0 -3.559197 -3.758935 -1.541831 0.353448 0.092410 -0.930878 0 0
  phy
    0 -3.559197 -3.758935 -1.541831 0.353448 0.092410 -0.930878 0 0
    0 -3.069386 -4.140547 -1.360257 0.996083 -0.080380 -0.036849 0 0
    0 -3.095285 -3.990831 -0.559737 0.861059 -0.288989 -0.418405 0 0
  phy
    0 1.694860 1.068916 -3.890612 -0.859593 0.306227 0.409054 0 0
    0 1.005537 1.395523 -3.542633 -0.930700 0.360780 0.060293 0 0
    0 1.156616 1.753442 -2.358848 -0.948267 0.005118 0.317433 0 0
  phy
    0 2.112085 0.794999 -3.750217 -0.503631 0.202417 0.839871 0 0
    0 1.694860 1.068916 -3.890612 -0.859593 0.306227 0.409054 0 0
    0 1.156616 1.753442 -2.358848 -0.948267 0.005118 0.317433 0 0
  phy
    0 1.815627 -2.118346 6.211606 0.498362 -0.223056 0.837784 0 0
    0 1.936492 -1.017738 6.567028 0.085185 -0.343458 0.935297 0 0
    0 1.266741 -1.098563 7.447543 0.141044 -0.830522 0.538832 0 0
  phy
    0 1.266741 -1.098563 7.447543 0.141044 -0.830522 0.538832 0 0
    0 1.201671 -2.262344 6.867767 0.755575 -0.598531 0.266208 0 0
    0 1.815627 -2.118346 6.211606 0.498362 -0.223056 0.837784 0 0
  phy
    0 1.045880 -3.133477 3.573167 0.912908 -0.092666 0.397507 0 0
    0 1.643396 -2.812805 3.664766 0.682762 -0.010284 0.730569 0 0
    0 1.815627 -2.118346 6.211606 0.498362 -0.223056 0.837784 0 0
  phy
    0 1.815627 -2.118346 6.211606 0.498362 -0.223056 0.837784 0 0
    0 1.935357 -2.073989 3.654965 0.217297 -0.027014 0.975732 0 0
    0 2.010464 -0.936912 5.462344 0.053448 -0.051742 0.997229 0 0
  phy
    0 2.010464 -0.936912 5.462344 0.053448 -0.051742 0.997229 0 0
    0 1.936492 -1.017738 6.567028 0.085185 -0.343458 0.935297 0 0
    0 1.815627 -2.118346 6.211606 0.498362 -0.223056 0.837784 0 0
  phy
    0 1.815627 -2.118346 6.211606 0.498362 -0.223056 0.837784 0 0
    0 1.643396 -2.812805 3.664766 0.682762 -0.010284 0.730569 0 0
    0 1.935357 -2.073989 3.654965 0.217297 -0.027014 0.975732 0 0
  phy
    0 1.884774 0.210271 6.600851 -0.128730 -0.142897 0.981330 0 0
    0 1.936492 -1.017738 6.567028 0.085185 -0.343458 0.935297 0 0
    0 2.010464 -0.936912 5.462344 0.053448 -0.051742 0.997229 0 0
  phy
    0 2.010464 -0.936912 5.462344 0.053448 -0.051742 0.997229 0 0
    0 2.506391 -0.056968 -3.415428 0.027273 -0.016758 0.999488 0 0
    0 1.884774 0.210271 6.600851 -0.128730 -0.142897 0.981330 0 0
  phy
    0 1.935357 -2.073989 3.654965 0.217297 -0.027014 0.975732 0 0
    0 2.506391 -0.056968 -3.415428 0.027273 -0.016758 0.999488 0 0
    0 2.010464 -0.936912 5.462344 0.053448 -0.051742 0.997229 0 0
  phy
    0 2.380852 0.616911 -2.394922 -0.469686 -0.023353 0.882524 0 0
    0 1.807775 1.097600 5.397851 -0.775018 -0.063229 0.628768 0 0
    0 1.884774 0.210271 6.600851 -0.128730 -0.142897 0.981330 0 0
  phy
    0 1.884774 0.210271 6.600851 -0.128730 -0.142897 0.981330 0 0
    0 2.506391 -0.056968 -3.415428 0.027273 -0.016758 0.999488 0 0
    0 2.380852 0.616911 -2.394922 -0.469686 -0.023353 0.882524 0 0
  phy
    0 2.380852 0.616911 -2.394922 -0.469686 -0.023353 0.882524 0 0
    0 2.506391 -0.056968 -3.415428 0.027273 -0.016758 0.999488 0 0
    0 2.112085 0.794999 -3.750217 -0.503631 0.202417 0.839871 0 0
  phy
    0 1.807775 1.097600 5.397851 -0.775018 -0.063229 0.628768 0 0
    0 2.380852 0.616911 -2.394922 -0.469686 -0.023353 0.882524 0 0
    0 1.156616 1.753442 -2.358848 -0.948267 0.005118 0.317433 0 0
  phy
    0 2.380852 0.616911 -2.394922 -0.469686 -0.023353 0.882524 0 0
    0 2.112085 0.794999 -3.750217 -0.503631 0.202417 0.839871 0 0
    0 1.156616 1.753442 -2.358848 -0.948267 0.005118 0.317433 0 0
  phy
    0 1.266741 -1.098563 7.447543 0.141044 -0.830522 0.538832 0 0
    0 1.936492 -1.017738 6.567028 0.085185 -0.343458 0.935297 0 0
    0 1.884774 0.210271 6.600851 -0.128730 -0.142897 0.981330 0 0
  phy
    0 1.807775 1.097600 5.397851 -0.775018 -0.063229 0.628768 0 0
    0 1.167870 1.097600 6.650203 -0.805860 -0.478771 0.348379 0 0
    0 1.884774 0.210271 6.600851 -0.128730 -0.142897 0.981330 0 0
  phy
    0 -0.010182 -3.471899 4.243111 0.983846 -0.174961 0.037884 0 0
    0 -0.893458 -4.521145 -6.583224 0.942634 -0.032246 0.332266 0 0
    0 1.045880 -3.133477 3.573167 0.912908 -0.092666 0.397507 0 0
  phy
    0 1.045880 -3.133477 3.573167 0.912908 -0.092666 0.397507 0 0
    0 -0.893458 -4.521145 -6.583224 0.942634 -0.032246 0.332266 0 0
    0 1.643396 -2.812805 3.664766 0.682762 -0.010284 0.730569 0 0
  phy
    0 -1.807775 1.097600 5.397851 -0.746947 -0.073635 -0.660793 0 0
    0 0.000000 1.671192 5.512085 -0.997571 -0.069654 0.000159 0 0
    0 -1.068528 1.759441 -2.416832 -0.949813 0.032928 -0.311079 0 0
  phy
    0 -1.807775 1.097600 5.397851 -0.746947 -0.073635 -0.660793 0 0
    0 -3.516665 -1.191046 0.117675 -0.198133 -0.083769 -0.976589 0 0
    0 -1.884774 0.210271 6.600851 -0.203941 -0.293491 -0.933955 0 0
  phy
    0 -1.266741 -1.098563 7.447543 0.173537 -0.784369 -0.595525 0 0
    0 -1.815627 -2.118346 6.211606 0.411961 -0.328375 -0.849975 0 0
    0 -1.201671 -2.262344 6.867767 0.856211 -0.406624 -0.318685 0 0
  phy
    0 -3.095285 -3.990831 -0.559737 0.861059 -0.288989 -0.418405 0 0
    0 -1.201671 -2.262344 6.867767 0.856211 -0.406624 -0.318685 0 0
    0 -1.815627 -2.118346 6.211606 0.411961 -0.328375 -0.849975 0 0
  phy
    0 -0.010182 -3.471899 4.243111 0.983846 -0.174961 0.037884 0 0
    0 -1.201671 -2.262344 6.867767 0.856211 -0.406624 -0.318685 0 0
    0 -3.095285 -3.990831 -0.559737 0.861059 -0.288989 -0.418405 0 0
  phy
    0 -3.095285 -3.990831 -0.559737 0.861059 -0.288989 -0.418405 0 0
    0 -3.069386 -4.140547 -1.360257 0.996083 -0.080380 -0.036849 0 0
    0 -0.010182 -3.471899 4.243111 0.983846 -0.174961 0.037884 0 0
  phy
    0 -1.625060 -4.519372 -6.659582 0.656791 0.483489 -0.578674 0 0
    0 -1.613173 -2.904846 -7.648337 0.073475 0.653784 -0.753105 0 0
    0 1.625060 -2.855318 -8.024703 0.684673 0.228216 0.692199 0 0
  phy
    0 1.625060 -2.855318 -8.024703 0.684673 0.228216 0.692199 0 0
    0 -0.893458 -4.521145 -6.583224 0.942634 -0.032246 0.332266 0 0
    0 -1.625060 -4.519372 -6.659582 0.656791 0.483489 -0.578674 0 0
  phy
    0 -1.625060 -4.519372 -6.659582 0.656791 0.483489 -0.578674 0 0
    0 -0.893458 -4.521145 -6.583224 0.942634 -0.032246 0.332266 0 0
    0 -3.069386 -4.140547 -1.360257 0.996083 -0.080380 -0.036849 0 0
  phy
    0 1.005537 1.395523 -3.542633 -0.930700 0.360780 0.060293 0 0
    0 -0.933934 1.393232 -3.597497 -0.882814 0.451492 -0.129596 0 0
    0 -1.068528 1.759441 -2.416832 -0.949813 0.032928 -0.311079 0 0
  phy
    0 1.156616 1.753442 -2.358848 -0.948267 0.005118 0.317433 0 0
    0 1.005537 1.395523 -3.542633 -0.930700 0.360780 0.060293 0 0
    0 -1.068528 1.759441 -2.416832 -0.949813 0.032928 -0.311079 0 0
  phy
    0 1.935357 -2.073989 3.654965 0.217297 -0.027014 0.975732 0 0
    0 1.643396 -2.812805 3.664766 0.682762 -0.010284 0.730569 0 0
    0 2.306868 -1.157098 -4.994364 0.302843 0.008010 0.953007 0 0
  phy
    0 2.306868 -1.157098 -4.994364 0.302843 0.008010 0.953007 0 0
    0 2.506391 -0.056968 -3.415428 0.027273 -0.016758 0.999488 0 0
    0 1.935357 -2.073989 3.654965 0.217297 -0.027014 0.975732 0 0
  phy
    0 0.000000 1.671192 5.512085 -0.997571 -0.069654 0.000159 0 0
    0 1.807775 1.097600 5.397851 -0.775018 -0.063229 0.628768 0 0
    0 1.156616 1.753442 -2.358848 -0.948267 0.005118 0.317433 0 0
  phy
    0 1.807775 1.097600 5.397851 -0.775018 -0.063229 0.628768 0 0
    0 0.000000 1.671192 5.512085 -0.997571 -0.069654 0.000159 0 0
    0 1.167870 1.097600 6.650203 -0.805860 -0.478771 0.348379 0 0
  phy
    0 -0.010182 -3.471899 4.243111 0.983846 -0.174961 0.037884 0 0
    0 0.000000 -2.317151 7.006042 0.830465 -0.557071 0.000000 0 0
    0 -1.201671 -2.262344 6.867767 0.856211 -0.406624 -0.318685 0 0
  phy
    0 1.201671 -2.262344 6.867767 0.755575 -0.598531 0.266208 0 0
    0 0.000000 -2.317151 7.006042 0.830465 -0.557071 0.000000 0 0
    0 -0.010182 -3.471899 4.243111 0.983846 -0.174961 0.037884 0 0
  phy
    0 -3.069386 -4.140547 -1.360257 0.996083 -0.080380 -0.036849 0 0
    0 -0.893458 -4.521145 -6.583224 0.942634 -0.032246 0.332266 0 0
    0 -0.010182 -3.471899 4.243111 0.983846 -0.174961 0.037884 0 0
  phy
    0 2.306868 -1.157098 -4.994364 0.302843 0.008010 0.953007 0 0
    0 1.625060 -2.855318 -8.024703 0.684673 0.228216 0.692199 0 0
    0 2.157653 -0.972057 -6.334396 -0.123176 0.211359 0.969616 0 0
  phy
    0 2.157653 -0.972057 -6.334396 -0.123176 0.211359 0.969616 0 0
    0 2.506391 -0.056968 -3.415428 0.027273 -0.016758 0.999488 0 0
    0 2.306868 -1.157098 -4.994364 0.302843 0.008010 0.953007 0 0
  phy
    0 2.306868 -1.157098 -4.994364 0.302843 0.008010 0.953007 0 0
    0 1.643396 -2.812805 3.664766 0.682762 -0.010284 0.730569 0 0
    0 1.625060 -2.855318 -8.024703 0.684673 0.228216 0.692199 0 0
  phy
    0 2.157653 -0.972057 -6.334396 -0.123176 0.211359 0.969616 0 0
    0 1.602097 -1.018334 -8.439340 -0.286429 0.419681 0.861293 0 0
    0 2.112085 0.794999 -3.750217 -0.503631 0.202417 0.839871 0 0
  phy
    0 2.112085 0.794999 -3.750217 -0.503631 0.202417 0.839871 0 0
    0 2.506391 -0.056968 -3.415428 0.027273 -0.016758 0.999488 0 0
    0 2.157653 -0.972057 -6.334396 -0.123176 0.211359 0.969616 0 0
  phy
    0 1.625060 -2.855318 -8.024703 0.684673 0.228216 0.692199 0 0
    0 1.602097 -1.018334 -8.439340 -0.286429 0.419681 0.861293 0 0
    0 2.157653 -0.972057 -6.334396 -0.123176 0.211359 0.969616 0 0
  phy
    0 0.000000 1.671192 5.512085 -0.997571 -0.069654 0.000159 0 0
    0 1.156616 1.753442 -2.358848 -0.948267 0.005118 0.317433 0 0
    0 -1.068528 1.759441 -2.416832 -0.949813 0.032928 -0.311079 0 0
  phy
    0 1.625060 -2.855318 -8.024703 0.684673 0.228216 0.692199 0 0
    0 -1.613173 -2.904846 -7.648337 0.073475 0.653784 -0.753105 0 0
    0 0.916839 -1.074198 -8.489413 -0.602353 0.719174 -0.346353 0 0
  phy
    0 1.625060 -2.855318 -8.024703 0.684673 0.228216 0.692199 0 0
    0 0.916839 -1.074198 -8.489413 -0.602353 0.719174 -0.346353 0 0
    0 1.602097 -1.018334 -8.439340 -0.286429 0.419681 0.861293 0 0
  phy
    0 1.643396 -2.812805 3.664766 0.682762 -0.010284 0.730569 0 0
    0 -0.893458 -4.521145 -6.583224 0.942634 -0.032246 0.332266 0 0
    0 1.625060 -2.855318 -8.024703 0.684673 0.228216 0.692199 0 0
end
